<?xml version="1.0" encoding="UTF-8"?>
<svg width="610px" height="410px" viewBox="0 0 610 410" version="1.1" xmlns="http://www.w3.org/2000/svg" xmlns:xlink="http://www.w3.org/1999/xlink">
    <!-- Generator: sketchtool 53.2 (72643) - https://sketchapp.com -->
    <title>8ED96343-62E2-4C28-8768-73D66C400E31</title>
    <desc>Created with sketchtool.</desc>
    <defs>
        <linearGradient x1="99.2589206%" y1="72.6117278%" x2="-12.6136645%" y2="36.51778%" id="linearGradient-1">
            <stop stop-color="#ADDBD8" offset="1.04782517%"></stop>
            <stop stop-color="#3EB649" offset="100%"></stop>
        </linearGradient>
        <polygon id="path-2" points="375 9 425.839852 147 308.345678 94 307.623958 9"></polygon>
        <mask id="mask-3" maskContentUnits="userSpaceOnUse" maskUnits="objectBoundingBox" x="-2" y="-2" width="122.215895" height="142">
            <rect x="305.623958" y="7" width="122.215895" height="142" fill="white"></rect>
            <use xlink:href="#path-2" fill="black"></use>
        </mask>
    </defs>
    <g id="Page-1" stroke="none" stroke-width="1" fill="none" fill-rule="evenodd">
        <g id="Artboard" transform="translate(-375.000000, -1727.000000)">
            <g id="Section-03" transform="translate(375.000000, 1727.000000)">
                <g id="illustration_02">
                    <g transform="translate(0.000000, 8.000000)">
                        <path d="M544.802696,361 L366.084797,361 C341.106706,348.890209 313.671787,342.472677 285.910245,343.699985 C282.553512,343.847286 279.175092,343.922143 275.772575,343.922143 C165.441379,343.922143 76,265.077647 76,167.818152 C76,94.6483543 126.623286,31.9055121 198.678574,5.31170379 C228.431321,-5.66823322 262.408298,0.525639318 285.312636,22.4903429 C291.426082,28.3533926 299.725139,31.9755403 308.894103,31.9755403 C313.98824,31.9755403 318.817308,30.8550893 323.154795,28.8508342 C352.293065,15.3716153 386.385708,18.1582543 411.292519,38.4398665 C426.81831,51.0859915 440.064512,65.8740131 450.423875,82.2775126 C468.583485,111.032536 494.572258,134.025929 525.937104,147.072905 C528.25043,148.033982 530.52761,149.043353 532.768645,150.093776 C552.029494,159.134657 564.078068,179.604621 561.410513,200.748304 C561.179181,202.571452 561.18882,204.471872 561.470756,206.413343 C562.721398,215.041299 569.555349,222.07068 578.133933,223.517125 C578.476113,223.575079 578.815882,223.623374 579.150833,223.664425 C596.587528,225.762856 609.91807,240.604003 610,258.200396 L610,258.67852 C610,300.930909 584.25172,338.298752 544.802696,361 Z" id="Combined-Shape" fill="url(#linearGradient-1)" opacity="0.25" style="mix-blend-mode: multiply;"></path>
                        <path d="M23.1404968,107.310897 C23.1404968,107.310897 4.84240495,131.054236 4.53835057,157.235596 C4.2326347,183.415297 -1.256959,217.438129 0.266635862,233 C0.266635862,233 10.6377145,183.015594 16.7370785,169.059168 C22.8347809,155.1044 55.8471106,88.4369656 86,79 C86,79 46.6224665,79.3035087 23.1404968,107.310897" id="Fill-9" fill="#7FCAC3" transform="translate(43.000000, 156.000000) scale(-1, 1) translate(-43.000000, -156.000000) "></path>
                        <path d="M87,91 C81.1099558,94.1645789 76.0228742,98.5716715 71.4991881,103.401818 C66.9523715,108.230299 63.054864,113.628405 59.6150121,119.279677 C52.5172198,130.545578 48.6577126,143.315486 45.1914257,156.225303 C43.4797607,162.681044 41.9234012,169.188417 40.4975644,175.729102 C39.003988,182.256463 37.7053696,188.830459 36.3737074,195.401124 C35.0816978,201.978452 33.8128187,208.565773 32.6067227,215.169749 C31.3163652,221.760401 30.2044438,228.382699 29,235 C30.0342686,221.585516 31.6567156,208.217669 33.8128187,194.9331 C35.9375303,181.641868 38.5760718,168.422256 42.0126193,155.36587 C43.7887196,148.853499 45.7267341,142.367778 48.1587523,136.028627 C49.4111095,132.87071 50.7559892,129.739443 52.323914,126.691454 L54.8054978,122.244387 C55.6431562,120.77036 56.6030765,119.364621 57.4952571,117.92557 C61.2060675,112.249315 65.4885344,106.934488 70.4021364,102.290884 C75.3702606,97.7488809 80.7762142,93.5233353 87,91" id="Fill-11" fill="#AEDCD9" transform="translate(58.000000, 163.000000) scale(-1, 1) translate(-58.000000, -163.000000) "></path>
                        <path d="M88,99 C88,99 127.047794,121.327994 143.523071,142.087219 C160,162.844783 160.001653,218.839077 160,227 C160,227 140.548001,164.372051 128.026261,154.670579 C115.506175,144.969107 95.2806575,129.410894 88,99" id="Fill-5" fill="#7FCAC3" transform="translate(124.000000, 163.000000) scale(-1, 1) translate(-124.000000, -163.000000) "></path>
                        <path d="M81.1947219,118 C85.4522016,120.727414 89.5628147,123.670369 93.5826676,126.745964 C97.5909692,129.833165 101.604221,132.955184 105.330341,136.436989 C109.059761,139.920453 112.700071,143.536556 115.832124,147.819177 C116.606062,148.901853 117.360197,150.012715 118.01367,151.246269 C118.36351,151.833202 118.63414,152.514641 118.941075,153.15463 L119.675407,154.892216 L122.62924,161.875723 C130.390065,180.695711 135.801024,200.576821 139.124499,220.632021 C140.9166,230.639724 142.022225,240.879549 142.68725,250.985075 C143.436434,261.117129 143.674061,271.259131 143.870433,281.384553 C144.212022,301.637055 143.898486,295.797238 142.68725,316 C142.426521,306.440178 142.051928,294.930434 141.563473,281.470769 C141.162478,271.376849 140.616267,261.287903 139.799425,251.223827 C139.013936,241.153119 137.786198,231.128835 135.972643,221.197399 C132.426394,201.326238 127.411479,181.687197 120.021946,162.892079 L117.284288,155.830646 C116.449294,153.426542 115.34532,151.218083 113.904707,149.143921 C111.063087,145.003889 107.592746,141.321465 104.023394,137.783287 C96.8236328,130.746724 89.0364054,124.320306 81,118.268596 L81.1947219,118 Z" id="Fill-7" fill="#AEDCD9" transform="translate(112.500000, 217.000000) scale(-1, 1) translate(-112.500000, -217.000000) "></path>
                        <path d="M91.3774774,25.20828 C86.2213759,33.7378595 83.8723022,46.7581779 88.4304277,65.0550729 C92.9902006,83.3519678 110.324915,130.922566 110.728508,148 C110.728508,148 114.357546,101.241822 110.728508,75.6265014 C107.101116,50.0111807 112.013415,11.7908893 115,0 C115,0 95.8532371,17.8051234 91.3774774,25.20828" id="Fill-13" fill="#7FCAC3" transform="translate(100.500000, 74.000000) scale(-1, 1) translate(-100.500000, -74.000000) "></path>
                        <path d="M96.2787809,16 C91.7646404,23.7906369 89.289144,32.6360829 88.9008308,41.4948178 C88.7133693,45.9200324 88.8773981,50.3668416 89.6724358,54.7189671 C89.7929468,55.8186263 90.1143094,56.8834021 90.3335725,57.964789 C90.5863108,59.047837 90.7854886,60.1076294 91.080071,61.2089498 C91.632413,63.3966403 92.2048402,65.5826698 92.7119906,67.7803271 C96.8729669,85.3516186 99.7635567,103.177061 101.785463,121.107154 C102.739508,130.080506 103.440815,139.090402 103.599823,148.155116 C103.696901,157.110195 104.066803,166.093514 104.329584,175.075171 C104.973983,193.036825 105.556453,211.011768 106,229 C104.257612,211.08818 102.801438,193.156426 101.720186,175.198094 C101.146085,166.216436 100.715928,157.233118 100.431388,148.211594 C100.17865,139.298042 99.4606055,130.364557 98.4580211,121.462633 C97.5190397,112.552403 96.3072348,103.66709 94.9330749,94.8066944 C93.594064,85.9396539 91.9638182,77.1207858 90.1712174,68.3401234 C89.7310176,66.1424661 89.2255409,63.96142 88.7401495,61.7737294 C88.2999497,59.5627832 87.7827567,57.3020035 87.5132808,55.0379015 C86.8772506,50.5047143 86.8739031,45.9050824 87.2756063,41.3718952 C87.7275225,36.8387079 88.7066742,32.366982 90.2030189,28.0846234 C91.7077324,23.8138925 93.6442769,19.6710677 96.2787809,16" id="Fill-15" fill="#AEDCD9" transform="translate(96.500000, 122.500000) scale(-1, 1) translate(-96.500000, -122.500000) "></path>
                        <path d="M52.8425061,320.870034 C50.0786702,320.282549 48,317.772839 48,314.766141 L48,307.231489 C48,303.788769 50.7252702,301 54.0838942,301 L109.918417,301 C113.277041,301 116,303.788769 116,307.231489 L116,314.766141 C116,318.131959 113.397332,320.87498 110.142514,320.995846 L106.640282,349.568991 C106.259092,352.668506 103.627283,355 100.509285,355 L62.4907149,355 C59.3727174,355 56.7409084,352.668506 56.3620009,349.568991 L52.8425061,320.870034 Z" id="Combined-Shape" fill="#CCEAE7" transform="translate(82.000000, 328.000000) scale(-1, 1) translate(-82.000000, -328.000000) "></path>
                        <path d="M546.25746,361 L50.7398667,361 C49.2269257,361 48,359.65724 48,358.001463 C48,356.34276 49.2269257,355 50.7398667,355 L546.25746,355 C547.770401,355 549,356.34276 549,358.001463 C549,359.65724 547.770401,361 546.25746,361" id="Fill-15" fill="#CCEAE7"></path>
                        <g id="Group-42" transform="translate(292.000000, 145.000000)">
                            <g id="Group-39" transform="translate(11.000000, 30.000000)">
                                <polygon id="Fill-1" fill="#81CAC4" points="0 50.7840728 13.8987639 50.7840728 13.8987639 0 0 0"></polygon>
                                <path d="M7.87291154,30.9505286 L6.38274004,30.9505286 C5.80998878,30.9505286 5.34567843,30.3114445 5.34567843,29.5238013 L5.34567843,8.84046052 C5.34567843,8.05211662 5.80998878,7.41373325 6.38274004,7.41373325 L7.87291154,7.41373325 C8.4456628,7.41373325 8.90946405,8.05211662 8.90946405,8.84046052 L8.90946405,29.5238013 C8.90946405,30.3114445 8.4456628,30.9505286 7.87291154,30.9505286" id="Fill-2" stroke="#FFFFFF" stroke-width="2" fill-opacity="0.5" fill="#FCFCFC"></path>
                                <g id="Group-29" transform="translate(4.989300, 42.258280)">
                                    <path d="M3.86293333,2.16408128 C3.86293333,3.22262618 3.05091655,4.08083899 2.0483053,4.08083899 C1.04616233,4.08083899 0.233677262,3.22262618 0.233677262,2.16408128 C0.233677262,1.10553638 1.04616233,0.247323575 2.0483053,0.247323575 C3.05091655,0.247323575 3.86293333,1.10553638 3.86293333,2.16408128" id="Fill-4" fill="#323746"></path>
                                    <path d="M2.04877359,0.49464715 C1.17728384,0.49464715 0.468291106,1.24403758 0.468291106,2.16408128 C0.468291106,3.08461963 1.17728384,3.83351541 2.04877359,3.83351541 C2.92026333,3.83351541 3.62925607,3.08461963 3.62925607,2.16408128 C3.62925607,1.24403758 2.92026333,0.49464715 2.04877359,0.49464715 M2.04877359,4.32816256 C0.91925544,4.32816256 -2.89546165e-13,3.35766486 -2.89546165e-13,2.16408128 C-2.89546165e-13,0.970497709 0.91925544,3.55271368e-15 2.04877359,3.55271368e-15 C3.17829173,3.55271368e-15 4.09754717,0.970497709 4.09754717,2.16408128 C4.09754717,3.35766486 3.17829173,4.32816256 2.04877359,4.32816256" id="Fill-6" fill="#FFFFFF"></path>
                                </g>
                            </g>
                            <g id="Group-39-Copy" transform="translate(26.000000, 22.500000) rotate(90.000000) translate(-26.000000, -22.500000) translate(19.000000, -3.000000)">
                                <polygon id="Fill-1" fill="#81CAC4" points="0 50.7840728 13.8987639 50.7840728 13.8987639 0 0 0"></polygon>
                                <path d="M7.62042308,31.1049017 L6.13025158,31.1049017 C5.55750032,31.1049017 5.09318996,30.4658175 5.09318996,29.6781744 L5.09318996,8.99483358 C5.09318996,8.20648968 5.55750032,7.56810631 6.13025158,7.56810631 L7.62042308,7.56810631 C8.19317434,7.56810631 8.65697558,8.20648968 8.65697558,8.99483358 L8.65697558,29.6781744 C8.65697558,30.4658175 8.19317434,31.1049017 7.62042308,31.1049017" id="Fill-2" stroke="#FFFFFF" stroke-width="2" fill-opacity="0.5" fill="#FCFCFC"></path>
                                <g id="Group-29" transform="translate(4.729391, 42.381395)">
                                    <path d="M3.86293333,2.16408128 C3.86293333,3.22262618 3.05091655,4.08083899 2.0483053,4.08083899 C1.04616233,4.08083899 0.233677262,3.22262618 0.233677262,2.16408128 C0.233677262,1.10553638 1.04616233,0.247323575 2.0483053,0.247323575 C3.05091655,0.247323575 3.86293333,1.10553638 3.86293333,2.16408128" id="Fill-4" fill="#323746"></path>
                                    <path d="M2.04877359,0.49464715 C1.17728384,0.49464715 0.468291106,1.24403758 0.468291106,2.16408128 C0.468291106,3.08461963 1.17728384,3.83351541 2.04877359,3.83351541 C2.92026333,3.83351541 3.62925607,3.08461963 3.62925607,2.16408128 C3.62925607,1.24403758 2.92026333,0.49464715 2.04877359,0.49464715 M2.04877359,4.32816256 C0.91925544,4.32816256 -2.89546165e-13,3.35766486 -2.89546165e-13,2.16408128 C-2.89546165e-13,0.970497709 0.91925544,3.55271368e-15 2.04877359,3.55271368e-15 C3.17829173,3.55271368e-15 4.09754717,0.970497709 4.09754717,2.16408128 C4.09754717,3.35766486 3.17829173,4.32816256 2.04877359,4.32816256" id="Fill-6" fill="#FFFFFF"></path>
                                </g>
                            </g>
                            <g id="Group-38" transform="translate(26.000000, 30.000000)">
                                <polygon id="Fill-9" fill="#81CAC4" points="0 50.8120926 13.8987639 50.8120926 13.8987639 0 0 0"></polygon>
                                <path d="M7.8505106,30.9505286 L6.40463187,30.9505286 C5.82017103,30.9505286 5.34567843,30.2981302 5.34567843,29.4929683 L5.34567843,8.87129352 C5.34567843,8.06613162 5.82017103,7.41373325 6.40463187,7.41373325 L7.8505106,7.41373325 C8.43497145,7.41373325 8.90946405,8.06613162 8.90946405,8.87129352 L8.90946405,29.4929683 C8.90946405,30.2981302 8.43497145,30.9505286 7.8505106,30.9505286" id="Fill-11" stroke="#FFFFFF" stroke-width="2" fill-opacity="0.5" fill="#FCFCFC"></path>
                                <g id="Group-33" transform="translate(4.989300, 42.258280)">
                                    <path d="M3.86340162,2.16408128 C3.86340162,3.22262618 3.05091655,4.08083899 2.04877359,4.08083899 C1.04663062,4.08083899 0.234145553,3.22262618 0.234145553,2.16408128 C0.234145553,1.10553638 1.04663062,0.247323575 2.04877359,0.247323575 C3.05091655,0.247323575 3.86340162,1.10553638 3.86340162,2.16408128" id="Fill-12" fill="#323746"></path>
                                    <path d="M2.04877359,0.49464715 C1.17728384,0.49464715 0.468291106,1.24403758 0.468291106,2.16408128 C0.468291106,3.08461963 1.17728384,3.83351541 2.04877359,3.83351541 C2.92026333,3.83351541 3.62925607,3.08461963 3.62925607,2.16408128 C3.62925607,1.24403758 2.92026333,0.49464715 2.04877359,0.49464715 M2.04877359,4.32816256 C0.91925544,4.32816256 -2.87769808e-13,3.35766486 -2.87769808e-13,2.16408128 C-2.87769808e-13,0.970497709 0.91925544,2.30926389e-14 2.04877359,2.30926389e-14 C3.17829173,2.30926389e-14 4.09754717,0.970497709 4.09754717,2.16408128 C4.09754717,3.35766486 3.17829173,4.32816256 2.04877359,4.32816256" id="Fill-13" fill="#FFFFFF"></path>
                                </g>
                            </g>
                            <g id="Group-38-Copy" transform="translate(33.000000, 7.500000) rotate(90.000000) translate(-33.000000, -7.500000) translate(26.000000, -18.000000)">
                                <polygon id="Fill-9" fill="#81CAC4" points="0 50.8120926 13.8987639 50.8120926 13.8987639 0 0 0"></polygon>
                                <path d="M7.59802214,31.1049017 L6.1521434,31.1049017 C5.56768256,31.1049017 5.09318996,30.4525033 5.09318996,29.6473414 L5.09318996,9.02566658 C5.09318996,8.22050468 5.56768256,7.56810631 6.1521434,7.56810631 L7.59802214,7.56810631 C8.18248298,7.56810631 8.65697558,8.22050468 8.65697558,9.02566658 L8.65697558,29.6473414 C8.65697558,30.4525033 8.18248298,31.1049017 7.59802214,31.1049017" id="Fill-11" stroke="#FFFFFF" stroke-width="2" fill-opacity="0.5" fill="#FCFCFC"></path>
                                <g id="Group-33" transform="translate(4.729391, 42.381395)">
                                    <path d="M3.86340162,2.16408128 C3.86340162,3.22262618 3.05091655,4.08083899 2.04877359,4.08083899 C1.04663062,4.08083899 0.234145553,3.22262618 0.234145553,2.16408128 C0.234145553,1.10553638 1.04663062,0.247323575 2.04877359,0.247323575 C3.05091655,0.247323575 3.86340162,1.10553638 3.86340162,2.16408128" id="Fill-12" fill="#323746"></path>
                                    <path d="M2.04877359,0.49464715 C1.17728384,0.49464715 0.468291106,1.24403758 0.468291106,2.16408128 C0.468291106,3.08461963 1.17728384,3.83351541 2.04877359,3.83351541 C2.92026333,3.83351541 3.62925607,3.08461963 3.62925607,2.16408128 C3.62925607,1.24403758 2.92026333,0.49464715 2.04877359,0.49464715 M2.04877359,4.32816256 C0.91925544,4.32816256 -2.87769808e-13,3.35766486 -2.87769808e-13,2.16408128 C-2.87769808e-13,0.970497709 0.91925544,2.30926389e-14 2.04877359,2.30926389e-14 C3.17829173,2.30926389e-14 4.09754717,0.970497709 4.09754717,2.16408128 C4.09754717,3.35766486 3.17829173,4.32816256 2.04877359,4.32816256" id="Fill-13" fill="#FFFFFF"></path>
                                </g>
                            </g>
                            <g id="Group-37" transform="translate(41.000000, 30.000000)">
                                <polygon id="Fill-1" fill="#81CAC4" points="0 50.7840728 13.8987639 50.7840728 13.8987639 0 0 0"></polygon>
                                <path d="M7.87291154,30.9505286 L6.38274004,30.9505286 C5.80998878,30.9505286 5.34567843,30.3114445 5.34567843,29.5238013 L5.34567843,8.84046052 C5.34567843,8.05211662 5.80998878,7.41373325 6.38274004,7.41373325 L7.87291154,7.41373325 C8.4456628,7.41373325 8.90946405,8.05211662 8.90946405,8.84046052 L8.90946405,29.5238013 C8.90946405,30.3114445 8.4456628,30.9505286 7.87291154,30.9505286" id="Fill-2" stroke="#FFFFFF" stroke-width="2" fill-opacity="0.5" fill="#FCFCFC"></path>
                                <g id="Group-32" transform="translate(4.989300, 42.258280)">
                                    <path d="M3.86293333,2.16408128 C3.86293333,3.22262618 3.05091655,4.08083899 2.0483053,4.08083899 C1.04616233,4.08083899 0.233677262,3.22262618 0.233677262,2.16408128 C0.233677262,1.10553638 1.04616233,0.247323575 2.0483053,0.247323575 C3.05091655,0.247323575 3.86293333,1.10553638 3.86293333,2.16408128" id="Fill-4" fill="#323746"></path>
                                    <path d="M2.04877359,0.49464715 C1.17728384,0.49464715 0.468291106,1.24403758 0.468291106,2.16408128 C0.468291106,3.08461963 1.17728384,3.83351541 2.04877359,3.83351541 C2.92026333,3.83351541 3.62925607,3.08461963 3.62925607,2.16408128 C3.62925607,1.24403758 2.92026333,0.49464715 2.04877359,0.49464715 M2.04877359,4.32816256 C0.91925544,4.32816256 -2.89546165e-13,3.35766486 -2.89546165e-13,2.16408128 C-2.89546165e-13,0.970497709 0.91925544,3.55271368e-15 2.04877359,3.55271368e-15 C3.17829173,3.55271368e-15 4.09754717,0.970497709 4.09754717,2.16408128 C4.09754717,3.35766486 3.17829173,4.32816256 2.04877359,4.32816256" id="Fill-6" fill="#FFFFFF"></path>
                                </g>
                            </g>
                            <g id="Group-36" transform="translate(56.000000, 30.000000)">
                                <polygon id="Fill-9" fill="#81CAC4" points="0 50.7840728 13.749222 50.7840728 13.749222 0 0 0"></polygon>
                                <path d="M7.49413204,30.9505286 L6.04825331,30.9505286 C5.46379246,30.9505286 4.98929987,30.2981302 4.98929987,29.4929683 L4.98929987,8.87129352 C4.98929987,8.06613162 5.46379246,7.41373325 6.04825331,7.41373325 L7.49413204,7.41373325 C8.07859288,7.41373325 8.55308548,8.06613162 8.55308548,8.87129352 L8.55308548,29.4929683 C8.55308548,30.2981302 8.07859288,30.9505286 7.49413204,30.9505286" id="Fill-11" stroke="#FFFFFF" stroke-width="2" fill-opacity="0.5" fill="#FCFCFC"></path>
                                <g id="Group-34" transform="translate(4.632921, 42.258280)">
                                    <path d="M3.86340162,2.16408128 C3.86340162,3.22262618 3.05091655,4.08083899 2.04877359,4.08083899 C1.04663062,4.08083899 0.234145553,3.22262618 0.234145553,2.16408128 C0.234145553,1.10553638 1.04663062,0.247323575 2.04877359,0.247323575 C3.05091655,0.247323575 3.86340162,1.10553638 3.86340162,2.16408128" id="Fill-12" fill="#323746"></path>
                                    <path d="M2.04877359,0.49464715 C1.17728384,0.49464715 0.468291106,1.24403758 0.468291106,2.16408128 C0.468291106,3.08461963 1.17728384,3.83351541 2.04877359,3.83351541 C2.92026333,3.83351541 3.62925607,3.08461963 3.62925607,2.16408128 C3.62925607,1.24403758 2.92026333,0.49464715 2.04877359,0.49464715 M2.04877359,4.32816256 C0.91925544,4.32816256 -2.87769808e-13,3.35766486 -2.87769808e-13,2.16408128 C-2.87769808e-13,0.970497709 0.91925544,2.30926389e-14 2.04877359,2.30926389e-14 C3.17829173,2.30926389e-14 4.09754717,0.970497709 4.09754717,2.16408128 C4.09754717,3.35766486 3.17829173,4.32816256 2.04877359,4.32816256" id="Fill-13" fill="#FFFFFF"></path>
                                </g>
                            </g>
                        </g>
                        <g id="Group-14-Copy" transform="translate(237.000000, 360.892768)">
                            <path d="M2.11619365,3.62140166 L2.16048029,15.3830645 C2.16786139,17.7748906 1.84555311,20.1593116 1.19601581,22.4622773 L0.17742322,26.0858074 C-0.659102093,29.0601628 1.56753146,32.0123032 4.64791291,31.9999614 C12.6342693,31.9703413 26.2843941,31.9925564 29.8051815,31.9999614 C30.3784474,31.9999614 30.9443322,31.6124313 30.9935395,31.0348386 C31.2887838,27.6013711 21.4030229,25.3008737 13.9554872,22.4079737 C8.28187729,20.2062101 8.58450262,9.97492109 9.28324729,4.00152676 C9.5489671,1.74545964 7.67170588,-0.174912588 5.4155479,0.0126816144 C3.54566779,0.170655679 2.10881255,1.73805461 2.11619365,3.62140166" id="Fill-58" fill="#FB8582"></path>
                            <path d="M1.19601581,22.4622773 C1.19601581,22.4622773 0.856484946,23.6701206 0.17742322,26.0858074 L0.17742322,32 L36.8676758,32 L36.8676758,29.1594777 C24.4232978,25.7579133 16.7859016,23.507412 13.9554872,22.4079737 C13.9554872,22.4079737 1.19601581,22.4079737 1.19601581,22.4622773 Z" id="Fill-58" fill="#323746"></path>
                        </g>
                        <path d="M257.392355,200.892768 C258.34341,200.581326 259.775369,229.363871 261.688232,287.240404 L255.386719,375.550508 L236.817585,375.523272 L236.817585,287.240404 C223.602566,229.675313 219.145625,200.892768 223.446762,200.892768 C227.747898,200.892768 239.063096,200.892768 257.392355,200.892768 Z" id="Fill-60" fill="#5C5C8D"></path>
                        <g id="Group-14" transform="translate(202.000000, 360.892768)">
                            <path d="M2.11619365,3.62140166 L2.16048029,15.3830645 C2.16786139,17.7748906 1.84555311,20.1593116 1.19601581,22.4622773 L0.17742322,26.0858074 C-0.659102093,29.0601628 1.56753146,32.0123032 4.64791291,31.9999614 C12.6342693,31.9703413 26.2843941,31.9925564 29.8051815,31.9999614 C30.3784474,31.9999614 30.9443322,31.6124313 30.9935395,31.0348386 C31.2887838,27.6013711 21.4030229,25.3008737 13.9554872,22.4079737 C8.28187729,20.2062101 8.58450262,9.97492109 9.28324729,4.00152676 C9.5489671,1.74545964 7.67170588,-0.174912588 5.4155479,0.0126816144 C3.54566779,0.170655679 2.10881255,1.73805461 2.11619365,3.62140166" id="Fill-58" fill="#FB8582"></path>
                            <path d="M1.19601581,22.4622773 C1.19601581,22.4622773 0.856484946,23.6701206 0.17742322,26.0858074 L0.17742322,32 L36.8676758,32 L36.8676758,29.1594777 C24.4232978,25.7579133 16.7859016,23.507412 13.9554872,22.4079737 C13.9554872,22.4079737 1.19601581,22.4079737 1.19601581,22.4622773 Z" id="Fill-58" fill="#323746"></path>
                        </g>
                        <path d="M220.728516,375.550508 L203.567735,375.550508 C200.582269,275.638897 199.089535,218.925782 199.089535,205.411163 C199.089535,191.896544 211.05969,190.386284 235,200.880382 L220.728516,375.550508 Z" id="Fill-62" fill="#5C5C8D"></path>
                        <path d="M231.663397,43.5773573 C233.739033,39.2694683 233.751208,34.8183685 232.049319,27.2724609 C230.347431,19.7265534 206.083009,27.1458129 202.594063,29.3806282 C195.202435,34.1180887 191.864729,44.3182377 195.028596,52.5096617 C191.883851,55.5862284 191.204141,60.8019568 192.914716,64.855929 C194.62529,68.9099013 198.190725,71.9464674 202.116006,73.9325834 C209.594554,77.7152473 218.743693,78.0178604 226.455185,74.7378125 C224.902804,70.8299293 225.7268,65.068106 228.927173,62.3428488 C230.446525,61.050656 232.197082,59.2436731 232.049319,57.2540788 C229.314834,53.3322824 229.587761,47.8852463 231.663397,43.5773573 Z" id="Fill-84" fill="#1C2246"></path>
                        <path d="M199.089535,200.890268 L257.894531,201.454355 C253.085079,132.86674 246.14588,92.9286161 237.076933,81.6399835 C231.557235,74.7687434 218.93904,78.7139279 212.308787,84.5065023 C205.680275,90.2990768 202.030067,98.7760578 199.318087,107.179493 C192.245121,129.100687 192.168937,160.337612 199.089535,200.890268 Z" id="Fill-104" fill="#AEDCD9"></path>
                        <path d="M222.164504,38.7178143 C232.216431,44.1622937 240.149767,53.420539 244,64.1972769 C241.753593,68.4283651 237.695003,71.5582833 233.123398,72.9733219 C226.450712,75.0371391 218.750246,74.0061072 213.226151,69.7294291 C207.700305,65.4509976 204.743031,57.862042 206.511442,51.095457 C208.279853,44.328872 216.02059,35.3915091 222.164504,38.7178143" id="Fill-112" fill="#FB8582"></path>
                        <path d="M235.471973,57.9569833 C235.741183,59.1420915 234.79414,60.2631397 233.5202,60.2631397 C232.460185,60.2631397 231.587655,59.4784059 231.52516,58.4717504 L231.517949,50.3956272 C231.517949,50.0959184 231.64294,49.8076489 231.86648,49.5948785 C232.092424,49.3821081 232.395286,49.2631397 232.710165,49.2631397 C233.15965,49.2631397 233.551447,49.5628485 233.647594,49.9815257 L235.471973,57.9569833 Z" id="Fill-76" fill="#E07369" transform="translate(233.517949, 54.763140) rotate(-30.000000) translate(-233.517949, -54.763140) "></path>
                        <path d="M318,7.50798399 C312.584271,28.1690164 305.991287,48.6854076 295.716096,67.4260236 C285.440905,86.1648968 271.264851,103.155877 253.016504,114.357726 C247.331389,117.846541 241.163476,120.795129 234.5495,121.718742 C227.937273,122.642354 220.796768,121.338841 215.648677,117.10068 C210.502335,112.86252 204.351915,103.324916 208.210796,97.8965154 C213.04227,91.1001232 221.634666,88.3397423 229.406657,85.2709099 C265.696936,70.9340076 295.263036,40.5733036 308.546965,4 L318,7.50798399 Z" id="Fill-114" fill="#AEDCD9"></path>
                        <path d="M231.963047,42.2965776 C232.125191,43.2467051 231.737457,44.2281554 231.118845,44.9764243 C230.501995,45.722953 229.677179,46.2693633 228.840026,46.7670491 C224.347599,49.4364548 219.17135,50.9712761 213.933417,51.1887961 C215.755766,53.6493826 216.124114,57.1975692 215.353933,60.1488809 C217.028239,61.4696625 218.274275,63.1819801 219.948581,64.5045018 C218.506915,63.6205005 216.282732,63.0462476 214.693023,62.4563333 C213.737787,62.0996005 212.551674,61.8368363 211.77973,62.4980972 C211.205179,62.9905625 211.090621,63.8641229 211.332074,64.5775886 C211.573526,65.2893141 212.104017,65.8687874 212.664469,66.3769142 C214.331725,67.8856331 216.395527,68.9610521 218.596799,69.470919 C219.262997,71.5121269 219.039168,73.8787447 218.718407,76 C212.64332,74.5365253 205.198827,71.7105052 202.014121,66.396056 C199.862197,62.8078457 199.818137,58.3826183 200.156523,54.2253756 C200.642953,48.2618467 201.894276,42.1138608 205.5566,37.3493022 C209.218924,32.5830035 215.824501,29.61255 221.520666,31.6537579 C226.013093,33.2634061 231.17348,37.6433893 231.963047,42.2965776" id="Fill-116" fill="#1C2246"></path>
                        <path d="M164.177236,208.680961 C163.601069,206.056339 163.292076,203.355176 162.964496,202.340388 C162.825101,201.918177 162.135094,200.903389 161.953879,200.594755 C161.41953,199.688606 160.462348,198.375061 160.462348,197.308422 L160.392651,192.817183 C160.392651,190.64687 159.405266,189 157.363124,189 C155.151383,189 154.147736,191.007354 154.403294,193.340626 L154.403294,196.486222 C154.607741,198.352839 153.999047,200.140446 153.480961,201.940398 C152.421556,205.597092 153.299747,209.922903 154.310364,213.322813 C154.944613,215.453621 157.500196,216.757291 160.992051,218.30046 C162.706615,219.053526 165.578161,219.68067 164.476937,217.488135 C163.55228,215.648678 158.415559,212.952453 159.953555,207.167421 C160.027899,206.881009 160.269518,206.164978 160.61336,206.157571 C161.628623,206.125473 161.814484,208.52294 162.302368,209.690811 C162.985406,211.332743 164.068043,211.999392 164.730172,211.824088 C165.431795,211.638907 164.590776,210.557455 164.177236,208.680961" id="Fill-64" fill="#FB8582"></path>
                        <path d="M194.623222,134.333323 C199.087081,130.028622 203.940096,126.103832 207.99763,121.417792 C212.056594,116.728896 215.344397,111.097364 215.919548,104.927388 C216.205693,101.845256 215.760738,98.5974494 214.063899,96.0080589 C212.36563,93.4172403 209.256667,91.6319462 206.186333,92.0647015 C196.670588,93.4072426 188.664256,100.444158 182.476375,107.783858 C163.070035,130.798441 154.061888,162.420841 154.691406,192.498047 C157.91912,195.623026 156.019819,194.954726 160.352051,196.160156 C163.455291,172.52572 177.445949,150.890854 194.623222,134.333323 Z" id="Fill-90" fill="#AEDCD9"></path>
                        <path d="M221.57494,57.2829193 C220.01542,66.0368391 219.152486,74.9163557 219,83.8061952 C223.377051,84.9933424 228.09893,86.6278203 232.550492,85.7520843 C233.869152,76.736648 234.264231,67.3444215 233.832763,58.2446806 C229.486902,56.8717191 226.104478,56.7736504 221.57494,57.2829193" id="Fill-108" fill="#FB8582"></path>
                        <path d="M218.044768,204 C215.133412,217.166016 210.74056,223.749023 204.866211,223.749023" id="Path-15" stroke="#8C8CDC"></path>
                        <path d="M208.15918,243.529297 L208.15918,374.298828" id="Path-16" stroke="#8C8CDC"></path>
                        <polyline id="Path-17" stroke="#8C8CDC" points="233 236.642578 245.43457 284.775254 241.775381 374.298828"></polyline>
                        <polyline id="Path-18" stroke="#8C8CDC" points="230.359375 256.679688 233 228.602539 239.217285 228.602539 239.217285 205.411163"></polyline>
                        <polyline id="Path-19" stroke="#FFFFFF" points="207 92 225 105 232 93.4667969 234.78833 94.5917969 219 83.8061952"></polyline>
                        <path d="" id="Path-20" stroke="#979797"></path>
                        <polyline id="Path-21" stroke="#FFFFFF" points="233 86 236.567383 94.5917969 238 90.7050781 244 94.5917969 239.217285 82.1875"></polyline>
                        <path d="M194.623222,134.333323 C206.121803,117.242915 207.914062,104.549125 200,96.2519531" id="Path-22" stroke="#FFFFFF"></path>
                        <polyline id="Path-23" stroke="#FFFFFF" points="233 96 236 144.210938 243.217285 150.490234 250.285156 144.210938 238.217285 95"></polyline>
                        <polygon id="Fill-20" fill="#C4CFED" transform="translate(426.442120, 178.027363) scale(-1, 1) translate(-426.442120, -178.027363) " points="372.486965 215.596373 480.397274 215.596373 480.397274 140.458352 372.486965 140.458352"></polygon>
                        <path d="M375.379508,221 C370.751468,221 367,216.930969 367,211.911162 L367,144.088838 C367,139.070058 370.751468,135 375.379508,135 L477.621438,135 C482.249479,135 486,139.070058 486,144.088838 L486,211.911162 C486,216.930969 482.249479,221 477.621438,221 L375.379508,221 Z M480.397274,215.596373 L480.397274,140.458352 L372.486965,140.458352 L372.486965,215.596373 L480.397274,215.596373 Z" id="Combined-Shape-Copy" fill="#323746"></path>
                        <g id="Group-31-Copy" transform="translate(402.000000, 147.000000)">
                            <rect id="Rectangle" fill="#FFFFFF" transform="translate(24.500000, 31.500000) scale(-1, 1) translate(-24.500000, -31.500000) " x="0" y="0" width="49" height="63" rx="4"></rect>
                            <g id="Group-27" transform="translate(7.000000, 7.000000)" fill="#AEDCD9">
                                <path d="M33.0987246,42.5658949 L1.81421969,42.5658949 C0.831073723,42.5658949 0.0340946721,42.0016088 0.0340946721,41.3055107 L0.0340946721,41.1459201 C0.0340946721,40.4492774 0.831073723,39.8849913 1.81421969,39.8849913 L33.0987246,39.8849913 C34.0818705,39.8849913 34.8788496,40.4492774 34.8788496,41.1459201 L34.8788496,41.3055107 C34.8788496,42.0016088 34.0818705,42.5658949 33.0987246,42.5658949" id="Fill-68"></path>
                                <path d="M33.0987246,30.197145 L1.81421969,30.197145 C0.831073723,30.197145 0.0340946721,29.6328589 0.0340946721,28.9367608 L0.0340946721,28.7771702 C0.0340946721,28.0805275 0.831073723,27.5162414 1.81421969,27.5162414 L33.0987246,27.5162414 C34.0818705,27.5162414 34.8788496,28.0805275 34.8788496,28.7771702 L34.8788496,28.9367608 C34.8788496,29.6328589 34.0818705,30.197145 33.0987246,30.197145" id="Fill-68-Copy"></path>
                                <path d="M33.0987246,17.7231155 L1.81421969,17.7231155 C0.831073723,17.7231155 0.0340946721,17.1588294 0.0340946721,16.4627314 L0.0340946721,16.3031408 C0.0340946721,15.606498 0.831073723,15.042212 1.81421969,15.042212 L33.0987246,15.042212 C34.0818705,15.042212 34.8788496,15.606498 34.8788496,16.3031408 L34.8788496,16.4627314 C34.8788496,17.1588294 34.0818705,17.7231155 33.0987246,17.7231155" id="Fill-68-Copy-2"></path>
                                <path d="M33.0987246,48.6936744 L1.81421969,48.6936744 C0.831073723,48.6936744 0.0340946721,48.1293883 0.0340946721,47.4332902 L0.0340946721,47.2736997 C0.0340946721,46.5770569 0.831073723,46.0127708 1.81421969,46.0127708 L33.0987246,46.0127708 C34.0818705,46.0127708 34.8788496,46.5770569 34.8788496,47.2736997 L34.8788496,47.4332902 C34.8788496,48.1293883 34.0818705,48.6936744 33.0987246,48.6936744" id="Fill-69"></path>
                                <path d="M33.0987246,36.3249245 L1.81421969,36.3249245 C0.831073723,36.3249245 0.0340946721,35.7606384 0.0340946721,35.0645403 L0.0340946721,34.9049498 C0.0340946721,34.208307 0.831073723,33.6440209 1.81421969,33.6440209 L33.0987246,33.6440209 C34.0818705,33.6440209 34.8788496,34.208307 34.8788496,34.9049498 L34.8788496,35.0645403 C34.8788496,35.7606384 34.0818705,36.3249245 33.0987246,36.3249245" id="Fill-69-Copy"></path>
                                <path d="M33.0987246,23.850895 L1.81421969,23.850895 C0.831073723,23.850895 0.0340946721,23.286609 0.0340946721,22.5905109 L0.0340946721,22.4309203 C0.0340946721,21.7342776 0.831073723,21.1699915 1.81421969,21.1699915 L33.0987246,21.1699915 C34.0818705,21.1699915 34.8788496,21.7342776 34.8788496,22.4309203 L34.8788496,22.5905109 C34.8788496,23.286609 34.0818705,23.850895 33.0987246,23.850895" id="Fill-69-Copy-2"></path>
                                <path d="M33.0987246,11.7437488 L1.81421969,11.7437488 C0.831073723,11.7437488 0.0340946721,11.1794627 0.0340946721,10.4833647 L0.0340946721,10.3237741 C0.0340946721,9.62713136 0.831073723,9.06284528 1.81421969,9.06284528 L33.0987246,9.06284528 C34.0818705,9.06284528 34.8788496,9.62713136 34.8788496,10.3237741 L34.8788496,10.4833647 C34.8788496,11.1794627 34.0818705,11.7437488 33.0987246,11.7437488" id="Fill-69-Copy-3"></path>
                                <rect id="Rectangle-Copy-5" x="0" y="0" width="21.9853811" height="5.51600944" rx="2"></rect>
                            </g>
                        </g>
                        <g id="Group-29" transform="translate(308.000000, 9.000000)">
                            <g id="Group-31">
                                <rect id="Rectangle" fill="#FFFFFF" transform="translate(33.500000, 42.500000) scale(-1, 1) translate(-33.500000, -42.500000) " x="0" y="0" width="67" height="85" rx="4"></rect>
                                <g id="Group-27" transform="translate(10.075188, 10.179641)">
                                    <path d="M44.9242641,57.2762326 L2.4624056,57.2762326 C1.12800043,57.2762326 0.0462760447,56.516935 0.0462760447,55.5802726 L0.0462760447,55.3655292 C0.0462760447,54.4281338 1.12800043,53.6688362 2.4624056,53.6688362 L44.9242641,53.6688362 C46.2586693,53.6688362 47.3403937,54.4281338 47.3403937,55.3655292 L47.3403937,55.5802726 C47.3403937,56.516935 46.2586693,57.2762326 44.9242641,57.2762326" id="Fill-68" fill="#AEDCD9"></path>
                                    <path d="M44.9242641,65.5217101 L2.4624056,65.5217101 C1.12800043,65.5217101 0.0462760447,64.7624125 0.0462760447,63.82575 L0.0462760447,63.6110066 C0.0462760447,62.6736113 1.12800043,61.9143137 2.4624056,61.9143137 L44.9242641,61.9143137 C46.2586693,61.9143137 47.3403937,62.6736113 47.3403937,63.6110066 L47.3403937,63.82575 C47.3403937,64.7624125 46.2586693,65.5217101 44.9242641,65.5217101" id="Fill-69" fill="#AEDCD9"></path>
                                    <g id="Group-45" transform="translate(0.046276, 13.702682)" stroke="#AEDCD9" stroke-linecap="round" stroke-linejoin="round" stroke-width="2.6">
                                        <path d="M2.59833648,0 C2.1779568,1.32294424 -0.822605785,3.72262164 1.33719746,3.96883272 C4.394215,4.31732354 6.05392808,1.28253538 9.03165898,0.733379448 C9.96377063,0.561478543 8.31629021,2.24607871 9.17892141,2.52265463 C10.2879979,2.87824561 11.5682572,1.86962424 12.8134398,1.9458901 C13.3431561,1.97833455 13.193479,2.59294844 13.6127475,2.79422088 C14.0481524,3.00323969 14.6476287,3.11504814 15.199091,3.09113665 C25.8181842,2.63069116 35.9951405,1.87322471 47.2941176,1.57493362" id="Path-8"></path>
                                        <path d="M2.49292041,13.7939245 C1.68398514,16.125529 2.82213391,11.9725525 7.29612807,12.6329149 C8.90732936,12.8707286 6.72288058,15.1400157 8.33534021,15.3751308 C10.5511427,15.6982202 12.2813628,13.9857844 14.5068303,13.6843179 C15.0043713,13.61692 14.7415226,14.4823637 15.2474416,14.4388033 L17.4912136,14.4923533 C24.633333,13.8774063 27.3234599,14.1239196 34.3985208,14.2720007 C36.0799763,14.3071936 37.7406834,14.0512684 39.4117647,13.9409022" id="Path-9"></path>
                                        <path d="M9.09494702e-13,20.4940866 C11.2519749,20.965486 11.5547625,18.4891992 21.0904391,18.8840323 C22.6562987,18.9488681 24.3309545,19.2603962 25.8139475,19.5795737 C26.3757161,19.7004805 26.6175699,18.8194422 27.2028959,18.8840323 C27.8485926,18.9552841 27.7354787,19.7964629 28.3824734,19.8630075 C30.0094633,20.0303464 31.6565264,19.407602 33.297245,19.5108473 L34.6067212,20.0506256 C36.2024054,20.151037 37.8100835,19.9472851 39.4117647,19.8956149" id="Path-10"></path>
                                        <path d="M9.09494702e-13,6.88177549 C10.6110189,10.0003487 13.2181016,6.4938372 22.9196733,6.88177549 C24.5127746,6.94547908 25.1946395,8.3317412 26.7034325,8.64534508 C27.2749745,8.76414054 27.5210358,7.89848742 28.1165449,7.96194954 C28.773475,8.03195717 28.6583932,8.85844681 29.3166439,8.92382937 C30.9719391,9.08824613 32.6476566,8.47637643 34.3169193,8.5778188 L35.6491768,9.10817119 C37.2726216,9.20682917 38.908269,9.00663532 40.5378151,8.95586739" id="Path-10-Copy" transform="translate(20.268908, 7.993231) scale(-1, 1) translate(-20.268908, -7.993231) "></path>
                                        <path d="M9.09494702e-13,26.6302563 C1.88884698,26.6779637 4.09664623,27.3863409 5.66654094,26.7733784 C7.0161371,26.2464311 5.18431976,23.7043993 6.72581231,24.0041755 C9.18269536,24.481969 8.36599231,27.924598 10.9476738,27.8004077 L12.406776,28.5472533 C13.6153758,28.4891143 14.4277566,27.6173029 15.6382748,27.5747689 C17.064173,27.5246672 18.3156004,28.2776699 19.7439529,28.2894471 C24.492343,28.3285988 22.1055315,25.8277634 26.8535708,25.7761857 C29.8026348,25.7441501 39.9977839,28.5922956 42.789916,28.0390999" id="Path-11"></path>
                                        <path d="M9.09494702e-13,33.0828327 C23.0918548,29.218677 3.73546382,36.9927509 27.5882353,33.1647399" id="Path-12" transform="translate(13.794118, 33.114814) scale(-1, 1) translate(-13.794118, -33.114814) "></path>
                                    </g>
                                    <rect id="Rectangle-Copy-5" fill="#AEDCD9" x="0" y="0" width="29.8403361" height="7.42228586" rx="2"></rect>
                                </g>
                            </g>
                        </g>
                        <use id="Path-5" stroke="#3EB649" mask="url(#mask-3)" stroke-width="4" stroke-linecap="round" stroke-linejoin="round" stroke-dasharray="0,7" xlink:href="#path-2"></use>
                        <path d="M309.263328,9.81066295 C308.194464,7.37483487 310.471027,1 314.43375,1 C319.28768,1 320.860407,6.86535568 320.996401,8.23280006 C321.226681,10.5483002 310.332193,12.246491 309.263328,9.81066295 Z" id="Fill-86" fill="#FB8582" transform="translate(315.000000, 6.000000) scale(-1, -1) translate(-315.000000, -6.000000) "></path>
                        <g id="Group-43" transform="translate(489.000000, 218.000000)">
                            <g id="Group-23-Copy">
                                <g id="Group-13">
                                    <polygon id="Fill-1" fill="#E4E3FC" points="0 6.98960952 32.9 6.98960952 32.9 0.000419047619 0 0.000419047619"></polygon>
                                    <polygon id="Fill-2" fill="#FFFFFF" points="29.2356522 6.97651429 57.8514493 6.97651429 57.8514493 0.000419047619 29.2356522 0.000419047619"></polygon>
                                    <polygon id="Fill-3" fill="#52767F" opacity="0.26" points="0 1.94060952 57.8514493 1.94060952 57.8514493 1.34922857 0 1.34922857"></polygon>
                                    <polygon id="Fill-6" fill="#52767F" opacity="0.26" points="0 3.79018095 57.8514493 3.79018095 57.8514493 3.1988 0 3.1988"></polygon>
                                    <polygon id="Fill-9" fill="#52767F" opacity="0.26" points="0 5.7230381 57.8514493 5.7230381 57.8514493 5.13165714 0 5.13165714"></polygon>
                                </g>
                            </g>
                        </g>
                        <g id="plant" transform="translate(509.000000, 178.000000)">
                            <path d="M3.77880291,9.00000235 C6.34317475,8.99622722 7.82879023,13.5509109 7.46803642,15.7992652 C7.10701298,18.0473498 8,22.9479963 8,22.9479963 C8,22.9479963 4.07862222,24.0204004 4.22934074,16.425396 C4.26681815,14.5418802 1.77874925,9.00296851 3.77880291,9.00000235" id="Fill-3" fill="#4C8783"></path>
                            <path d="M13.1482472,12.8080492 C13.1482472,12.8080492 15.2298334,8.65766775 16.3807864,9.02274633 C17.5320121,9.38810168 18.4675534,13.9162938 17.7479692,15.449956 C17.028385,16.9836181 15.1676639,24.2143328 13.1482472,23.9951196 C11.1285577,23.7761831 7.31495214,21.6490953 8.10652207,20.0833262 C8.89809199,18.517557 13.1482472,12.8080492 13.1482472,12.8080492" id="Fill-5" fill="#4C8783"></path>
                            <path d="M8.99381122,26.8639173 C8.65727623,25.3228005 6.6189186,21.6103882 6.44223773,20.0256287 C5.69489795,19.3362403 2.79518481,15.810352 0.665150407,16.0079952 C-1.70190907,16.2273208 2.79054295,22.6255683 5.66095434,25.5287831 C5.70592238,24.7451597 9.16556012,27.6492085 8.99381122,26.8639173" id="Fill-7" fill="#4C8783"></path>
                            <path d="M16.0974784,25.2252012 C15.4168012,25.5582706 14.4585327,25.7563707 13.4149627,25.8684823 C13.2163113,25.89134 13.0182383,25.9114765 12.8138039,25.9258987 C10.8541823,26.0752901 8.72366862,25.9661718 7.60376096,25.8829044 C7.09715672,25.8453525 6.62120319,25.6358235 6.26380431,25.2940464 C6.15710513,25.1906426 6.03479144,25.0728165 5.90062228,24.9435617 C5.53454867,24.5873625 5.22023428,22.6458183 5.12249899,22.1663508 C4.87816076,20.9225108 4.43574952,9.01174293 10.1674329,1.23087211 C10.7870978,0.38921884 11.4553411,0.0275773301 12.0564999,0.00172635686 C12.1817052,-0.0039880688 12.3008382,0.00444751194 12.419682,0.0275773301 C13.2958297,0.188397595 13.9733261,1.06433741 14.0618084,2.13565617 C14.4432073,6.85767657 14.5684126,14.1988087 12.0293191,16.7839061 C8.16819673,20.7099886 10.8816523,22.2811835 12.1328376,21.1037397 C13.1310098,20.1671182 15.4474519,15.3131217 17.1413376,15.5460526 C17.2451452,15.5602026 17.3489528,15.5944892 17.4466881,15.6494565 C17.7610025,15.8214335 18.0478469,16.2121914 18.2890044,16.8815955 C19.854504,21.2011571 18.7068372,23.9497958 16.0974784,25.2252012" id="Fill-10" fill="#7FCAC3"></path>
                            <path d="M7.74964349,24.8382935 C7.76143756,24.9148489 7.70499453,24.9857634 7.62524418,24.9970452 C7.61597742,25 7.6103612,25 7.60137524,25 C7.53033004,25 7.46798998,24.9486945 7.45619591,24.87778 C7.42923805,24.708015 4.99601004,8.55267751 11.6470205,0.00157406775 C11.7688925,-0.00379824075 11.8843058,0.00452883743 12,0.0273611486 C5.28047167,8.4393218 7.72268563,24.6679913 7.74964349,24.8382935" id="Fill-12" fill="#CCEAE7"></path>
                            <path d="M17,16.1006671 C16.8438734,18.0019507 16.1346127,23.6920261 13.1127271,26.0494906 C12.5211189,26.513619 11.8414107,26.8463502 11.0585475,27 L11,26.7258146 C11.5648436,26.6169352 12.0739278,26.4018255 12.5331072,26.1053874 C15.7964314,24.010717 16.5528089,17.8424728 16.7055899,16 C16.8056782,16.0140404 16.9057665,16.0474195 17,16.1006671" id="Fill-14" fill="#CCEAE7"></path>
                            <path d="M8.14553735,9 C8.11074546,9 8.07540133,8.9886036 8.04751259,8.96505105 C7.98814549,8.91541341 7.98372747,8.83082681 8.03812431,8.77637736 L11.7467735,5.04367731 C11.8008942,4.98922785 11.8931203,4.98492255 11.9524874,5.0350667 C12.0118545,5.08470434 12.0162725,5.16929093 11.9618757,5.22374039 L8.25322651,8.95644044 C8.2245094,8.98531131 8.1852995,9 8.14553735,9" id="Fill-16" fill="#CCEAE7"></path>
                            <path d="M8.11736125,15 C8.08911429,15 8.06086732,14.9878213 8.03862562,14.9629227 C7.99058354,14.9101483 7.98680245,14.8197554 8.03039619,14.7610271 L10.7957072,11.0467976 C10.8395234,10.9886106 10.9138107,10.9840097 10.9614079,11.036784 C11.00945,11.0895584 11.0132311,11.1799513 10.969415,11.2386796 L8.20432631,14.9531797 C8.18097252,14.9840324 8.14916689,15 8.11736125,15" id="Fill-18" fill="#CCEAE7"></path>
                            <path d="M7.8545365,20 C7.80556911,20 7.75715192,19.9759568 7.73019235,19.9323621 C7.27545588,19.2052549 6.08263235,17.3002973 6.02431164,17.2168068 C5.98002092,17.1528678 5.99790227,17.0662068 6.0644759,17.0234047 C6.13049935,16.9808668 6.22100648,16.9977763 6.26584741,17.0622436 C6.33957358,17.168192 7.91230701,19.6818906 7.97915574,19.7886316 C8.02069549,19.8549484 7.99813748,19.9402884 7.92936306,19.9801842 C7.90597976,19.9936589 7.88012058,20 7.8545365,20" id="Fill-20" fill="#CCEAE7"></path>
                            <path d="M14.8886215,23 C14.8437025,23 14.8013142,22.9639657 14.7846541,22.9054794 L14.0071123,20.1979204 C13.9856018,20.1219713 14.0144933,20.0377065 14.0720656,20.0091563 C14.1302705,19.9814376 14.1939585,20.0185807 14.215469,20.0945298 L14.9927999,22.8020887 C15.0145213,22.8780379 14.9854188,22.9620254 14.9280575,22.9908528 C14.9149825,22.9969509 14.9016966,23 14.8886215,23" id="Fill-22" fill="#CCEAE7"></path>
                            <path d="M8.13685965,24 C8.10989834,24 8.08267778,23.9900695 8.0588274,23.969888 C7.99686823,23.9163913 7.98131363,23.8109994 8.02434803,23.7344382 C8.07153032,23.6508295 9.17953644,21.6829813 9.77320373,21.0419811 C9.82971879,20.9807961 9.91604683,20.9868826 9.96634004,21.0576777 C10.0158555,21.1281525 10.0101522,21.2348257 9.95311863,21.2966513 C9.38485718,21.9104226 8.26077797,23.9071014 8.24963051,23.9272828 C8.2226692,23.9746931 8.18015329,24 8.13685965,24" id="Fill-24" fill="#CCEAE7"></path>
                            <path d="M18.9824633,25.8791508 L18.6997245,27.8460657 L18.6599517,28.1393532 L17.352048,37.270982 C17.166171,38.554948 16.2551839,39.6364457 15.018709,39.9119582 C14.7616737,39.9705602 14.4932748,40 14.219194,40 L5.30602279,40 C3.76408178,39.9852801 2.49324533,38.7451961 2.31061501,37.1740527 L1.27679212,28.1393532 L1.24243057,27.8460657 L1.01109883,25.8322137 C0.899626694,24.8559774 1.64205276,24 2.59876506,24 L17.4002083,24 C18.3772129,24 19.1253208,24.8884723 18.9824633,25.8791508" id="Fill-26" fill="#FB8582"></path>
                            <polygon id="Fill-28" fill="#FFFFFF" points="19 27.8130841 18.9589907 28.8130841 1.0351508 28.8130841 1 27.8130841"></polygon>
                        </g>
                        <path d="M489.014875,225.778176 L362.665855,225.778176 C357.880769,225.778176 354,223.639276 354,221 L497.679705,221 C497.679705,223.639276 493.799961,225.778176 489.014875,225.778176" id="Fill-24-Copy" fill="#68728F" transform="translate(425.839852, 223.389088) scale(-1, 1) translate(-425.839852, -223.389088) "></path>
                        <path d="M433.378006,223 L418.621994,223 C417.17429,223 416,222.104277 416,221 L436,221 C436,222.104277 434.82571,223 433.378006,223" id="Fill-27-Copy-2" fill="#96A1C1" transform="translate(426.000000, 222.000000) scale(-1, 1) translate(-426.000000, -222.000000) "></path>
                        <polygon id="Fill-1" fill="#FFC4B0" points="312 248 541 248 541 232 312 232"></polygon>
                        <polygon id="Fill-2" fill="#FFC4B0" points="303.951795 226 302 393 307.854261 393 322 230.370152"></polygon>
                        <polygon id="Fill-3" fill="#FFC4B0" points="551.049219 226 533 230.370152 547.146533 393 553 393"></polygon>
                        <path d="M305,240 L552,240 L552,230 L305,230 C303.895431,230 303,230.895431 303,232 L303,238 C303,239.104569 303.895431,240 305,240 Z" id="Fill-4-Copy" fill="#FF9A9A"></path>
                        <path d="M291,234 L561,234 C562.104569,234 563,233.104569 563,232 L563,227 C563,225.895431 562.104569,225 561,225 L291,225 C289.895431,225 289,225.895431 289,227 L289,232 C289,233.104569 289.895431,234 291,234 Z" id="Fill-4" fill="#FFFFFF"></path>
                        <circle id="Oval" fill="#3EB649" cx="426.5" cy="148.5" r="3.5"></circle>
                    </g>
                </g>
            </g>
        </g>
    </g>
</svg>