<?xml version="1.0" encoding="utf-8"?>
<!-- Generator: Adobe Illustrator 19.0.0, SVG Export Plug-In . SVG Version: 6.00 Build 0)  -->
<svg version="1.1" id="Layer_1" xmlns="http://www.w3.org/2000/svg" xmlns:xlink="http://www.w3.org/1999/xlink" x="0px" y="0px"
	width="336" height="113" viewBox="-238 200 337 113" style="enable-background:new -238 200 337 113;" xml:space="preserve">
<style type="text/css">
	.st0{fill:#FFFFFF;}
	.st1{fill:none;stroke:#4C6684;stroke-linecap:round;stroke-linejoin:round;}
	.st2{opacity:0.2;fill:#010101;enable-background:new    ;}
	.st3{fill:#BACBE0;}
	.st4{fill:#BACBDF;}
	.st5{fill:none;stroke:#4C6684;}
	.st6{opacity:0.1;fill:#010101;enable-background:new    ;}
	.st7{fill:#50BC87;}
	.st8{display:none;}
	.st9{display:inline;fill:none;stroke:#000000;stroke-miterlimit:10;}
</style>
<g id="XMLID_2_">
	<path id="XMLID_19_" class="st0" d="M72.4,220.1c-0.1,0-0.2,0-0.3,0c-2.1,0.1-3.9,1-5.2,2.6c-1.4,1.7-1.9,4.1-1.4,6.4
		c0.8,3.9,4.3,7,8,7c0.8,0,1.6-0.1,2.4-0.4c4.1-1.5,5.3-5.9,4.3-9.3C79.2,222.6,75.9,220.1,72.4,220.1 M71.8,251.1
		c-1.5,0-3-0.2-4.5-0.5c0.6-2.3,0-5.1-2.3-6.4c-0.7-0.4-1.5-0.6-2.3-0.6c-1.9,0-3.7,1.1-4.8,2.2c-2.6-2.3-4.7-5.1-6.1-8.3
		c2.4-1.2,4.3-3.8,3.8-6.6c-0.5-2.8-3.2-4.1-5.7-4.1c0.2-3.1,1.1-6.1,2.7-8.8c0.7,0.2,1.5,0.4,2.3,0.4c1.8,0,3.4-0.7,4.4-1.8
		c0.7-0.8,1-1.7,0.9-2.7c-0.1-0.9-0.5-1.8-1.2-2.6c2.1-1.3,4.4-2.2,6.8-2.6c1,1.5,2.9,2.7,4.8,2.7c1.1,0,2-0.4,2.6-1.1
		c0.3-0.4,0.5-0.9,0.6-1.4c2.1,0.5,4.1,1.3,5.9,2.3c-0.1,0.9,0.1,1.9,0.8,2.8c0.9,1.3,2.4,2.2,3.7,2.2c0.5,0,0.9-0.1,1.2-0.3
		c1.3,1.5,2.5,3.2,3.4,5.1c-0.8,0.6-1.1,1.7-1,2.9c0.2,1.7,1.4,3.6,3.1,4c0.3,2.1,0.3,4.2,0,6.3c-0.2,0-0.3,0-0.5,0
		c-1.2,0-2.2,0.8-2.8,2.2c-0.6,1.7-0.3,3.8,0.7,5.2c-1.2,2-2.7,3.8-4.5,5.3c-0.8-1.2-2-2-3.3-2c-0.5,0-0.9,0.1-1.4,0.3
		c-2.1,0.9-3.2,3.4-3.3,5.5C74.6,250.9,73.2,251.1,71.8,251.1"/>
	<path id="XMLID_16_" class="st1" d="M72.4,220.1c-0.1,0-0.2,0-0.3,0c-2.1,0.1-3.9,1-5.2,2.6c-1.4,1.7-1.9,4.1-1.4,6.4
		c0.8,3.9,4.3,7,8,7c0.8,0,1.6-0.1,2.4-0.4c4.1-1.5,5.3-5.9,4.3-9.3C79.2,222.6,75.9,220.1,72.4,220.1z M71.8,251.1
		c-1.5,0-3-0.2-4.5-0.5c0.6-2.3,0-5.1-2.3-6.4c-0.7-0.4-1.5-0.6-2.3-0.6c-1.9,0-3.7,1.1-4.8,2.2c-2.6-2.3-4.7-5.1-6.1-8.3
		c2.4-1.2,4.3-3.8,3.8-6.6c-0.5-2.8-3.2-4.1-5.7-4.1c0.2-3.1,1.1-6.1,2.7-8.8c0.7,0.2,1.5,0.4,2.3,0.4c1.8,0,3.4-0.7,4.4-1.8
		c0.7-0.8,1-1.7,0.9-2.7c-0.1-0.9-0.5-1.8-1.2-2.6c2.1-1.3,4.4-2.2,6.8-2.6c1,1.5,2.9,2.7,4.8,2.7c1.1,0,2-0.4,2.6-1.1
		c0.3-0.4,0.5-0.9,0.6-1.4c2.1,0.5,4.1,1.3,5.9,2.3c-0.1,0.9,0.1,1.9,0.8,2.8c0.9,1.3,2.4,2.2,3.7,2.2c0.5,0,0.9-0.1,1.2-0.3
		c1.3,1.5,2.5,3.2,3.4,5.1c-0.8,0.6-1.1,1.7-1,2.9c0.2,1.7,1.4,3.6,3.1,4c0.3,2.1,0.3,4.2,0,6.3c-0.2,0-0.3,0-0.5,0
		c-1.2,0-2.2,0.8-2.8,2.2c-0.6,1.7-0.3,3.8,0.7,5.2c-1.2,2-2.7,3.8-4.5,5.3c-0.8-1.2-2-2-3.3-2c-0.5,0-0.9,0.1-1.4,0.3
		c-2.1,0.9-3.2,3.4-3.3,5.5C74.6,250.9,73.2,251.1,71.8,251.1L71.8,251.1z"/>
	<path id="XMLID_15_" class="st2" d="M78.9,243c-7.8,2.9-15.8-3.2-17.3-10.8c-1.5-7.2,3-14.5,10.9-14.8c6.4-0.3,11.8,4.3,13.5,10.2
		C87.7,233.6,85.2,240.7,78.9,243"/>
	<path id="XMLID_14_" class="st3" d="M77.5,241.2c-7.8,2.9-15.8-3.2-17.3-10.8c-1.4-7.2,3-14.5,10.9-14.8
		c6.4-0.3,11.8,4.3,13.5,10.2C86.3,231.8,83.9,238.9,77.5,241.2"/>
	<path id="XMLID_13_" class="st1" d="M77.5,241.2c-7.8,2.9-15.8-3.2-17.3-10.8c-1.4-7.2,3-14.5,10.9-14.8
		c6.4-0.3,11.8,4.3,13.5,10.2C86.3,231.8,83.9,238.9,77.5,241.2z"/>
	<path id="XMLID_9_" class="st0" d="M64.7,229.7c0.4,2.9,3.3,4.5,6.2,3.8l0.7-0.2l-0.2-1.7l-0.7,0.1c-1.8,0.4-3.5-0.7-3.7-2.4
		c-0.2-1.7,1.2-3.2,3-3.3l1.6-0.1l1.1,8.5c0.1,0.9,0.9,1.4,1.8,1.1L73,224.4l-3.3,0C66.8,224.5,64.3,226.8,64.7,229.7 M76.8,224.4
		l-0.5,0l0.2,1.4l0.5,0c1.1-0.1,2.1,0.9,2.3,2.1c0.2,1.2-0.6,2.4-1.7,2.6l-1.2,0.2l-0.9-7.5c-0.1-0.8-0.8-1.5-1.6-1.5l1.4,10.8
		l2.5-0.6c1.7-0.4,2.8-2.2,2.6-4.1C80.1,225.9,78.6,224.4,76.8,224.4 M87,213.1l3-0.8"/>
	<path id="XMLID_8_" class="st1" d="M87,213.1l3-0.8"/>
	<path id="XMLID_7_" class="st0" d="M83,208.9l-0.8-3"/>
	<path id="XMLID_6_" class="st1" d="M83,208.9l-0.8-3"/>
	<g id="XMLID_3_">
		<path id="XMLID_5_" class="st0" d="M85.6,210.1l1.7-2.6"/>
		<path id="XMLID_4_" class="st1" d="M85.6,210.1l1.7-2.6"/>
	</g>
</g>
<g id="XMLID_22_">
	<path id="XMLID_47_" class="st0" d="M-227.3,224.8c0,0-1.7,7.8-2.5,13c-0.8,5.1,3,6.5,3,6.5l22.4,6.5c-2.6-1.1-1.6-5.2-1.6-5.2
		s4.3-22.4,5.8-29c1.5-6.6-5.1-5.6-5.1-5.6l-19.7,0.9"/>
	<path id="XMLID_46_" class="st1" d="M-227.3,224.8c0,0-1.7,7.8-2.5,13c-0.8,5.1,3,6.5,3,6.5l22.4,6.5c-2.6-1.1-1.6-5.2-1.6-5.2
		s4.3-22.4,5.8-29c1.5-6.6-5.1-5.6-5.1-5.6l-19.7,0.9"/>
	<path id="XMLID_45_" class="st0" d="M-202.1,225.8h13.9c0,0-4,1.8-4.9,6.8c-0.7,4-2.7,12.6-2.7,12.6s-1.3,7.1-7.8,5.6
		c0,0-3.4-0.3-2.4-5.6C-205.1,240.2-202.1,225.8-202.1,225.8"/>
	<path id="XMLID_44_" class="st1" d="M-202.1,225.8h13.9c0,0-4,1.8-4.9,6.8c-0.7,4-2.7,12.6-2.7,12.6s-1.3,7.1-7.8,5.6
		c0,0-3.4-0.3-2.4-5.6C-205.1,240.2-202.1,225.8-202.1,225.8z"/>
	<path id="XMLID_43_" class="st4" d="M-230.1,221.2c0,0-2.7-5.7,2.4-8.7c0.9-0.5,2-0.8,3-0.9l19.8-0.9c0,0-4.8,2.7-3.2,10.7
		L-230.1,221.2L-230.1,221.2z"/>
	<path id="XMLID_38_" class="st1" d="M-230.1,221.2c0,0-2.7-5.7,2.4-8.7c0.9-0.5,2-0.8,3-0.9l19.8-0.9c0,0-4.8,2.7-3.2,10.7
		L-230.1,221.2L-230.1,221.2z M-223.3,227.2l7.2,0.5 M-223.9,232.4l3.6,0.3 M-224.8,237.5l6.3,1.4"/>
	<path id="XMLID_37_" class="st2" d="M-197.5,237.7c0,4.3-3.5,7.8-7.9,7.8c-4.3,0-7.9-3.5-7.9-7.8c0-4.3,3.5-7.8,7.9-7.8
		C-201,229.9-197.5,233.4-197.5,237.7"/>
	<path id="XMLID_36_" class="st4" d="M-199.1,236.1c0,4.3-3.5,7.8-7.9,7.8c-4.3,0-7.9-3.5-7.9-7.8c0-4.3,3.5-7.8,7.9-7.8
		C-202.7,228.3-199.1,231.8-199.1,236.1"/>
	<path id="XMLID_35_" class="st1" d="M-199.1,236.1c0,4.3-3.5,7.8-7.9,7.8c-4.3,0-7.9-3.5-7.9-7.8c0-4.3,3.5-7.8,7.9-7.8
		C-202.7,228.3-199.1,231.8-199.1,236.1L-199.1,236.1z"/>
	<path id="XMLID_30_" class="st0" d="M-205.9,238c0.1-0.1,0.2-0.3,0.2-0.4c0-0.2-0.1-0.3-0.2-0.4c-0.2-0.1-0.3-0.2-0.5-0.3v1.4
		C-206.2,238.2-206,238.1-205.9,238 M-208,235c0.1,0.1,0.3,0.2,0.5,0.3v-1.4c-0.3,0.1-0.4,0.2-0.6,0.3c-0.1,0.1-0.2,0.3-0.2,0.4
		C-208.2,234.7-208.1,234.9-208,235 M-204.7,238.9c-0.4,0.4-1,0.6-1.7,0.7v1.1h-1v-1.1c-0.5,0-0.9-0.1-1.4-0.3
		c-0.4-0.1-0.8-0.3-1.1-0.5l0.5-1.2c0.3,0.2,0.5,0.3,0.9,0.5s0.7,0.2,1,0.2v-1.6c-0.4-0.1-0.8-0.2-1.2-0.4c-0.3-0.1-0.6-0.3-0.8-0.6
		c-0.2-0.3-0.3-0.6-0.3-1.1c0-0.5,0.2-1,0.6-1.4s1-0.6,1.7-0.7v-1.1h1v1.1c0.8,0.1,1.5,0.3,2,0.6l-0.5,1.2c-0.5-0.3-1-0.4-1.5-0.5
		v1.7c0.5,0.1,0.9,0.2,1.2,0.4c0.3,0.1,0.6,0.3,0.8,0.6c0.2,0.3,0.3,0.6,0.3,1C-204.1,238-204.3,238.5-204.7,238.9 M-195.5,214.6
		h3.3"/>
	<path id="XMLID_29_" class="st1" d="M-195.5,214.6h3.3"/>
	<g id="XMLID_26_">
		<path id="XMLID_28_" class="st0" d="M-198.5,209.2v-3.3"/>
		<path id="XMLID_27_" class="st1" d="M-198.5,209.2v-3.3"/>
	</g>
	<g id="XMLID_23_">
		<path id="XMLID_25_" class="st0" d="M-196.1,211.1l2.5-2.2"/>
		<path id="XMLID_24_" class="st1" d="M-196.1,211.1l2.5-2.2"/>
	</g>
</g>
<g id="XMLID_48_">
	<path id="XMLID_69_" class="st0" d="M-143.1,251.1L-157,249c-2.7-0.4-4.1-1.9-4.1-4.1v-29.1c0-2.3,1.9-3.8,4.1-4.1l13.9-2.1
		c2.3-0.3,4.1,1.9,4.1,4.1v33.2C-139,249.2-140.8,251.4-143.1,251.1"/>
	<path id="XMLID_65_" class="st1" d="M-143.1,251.1L-157,249c-2.7-0.4-4.1-1.9-4.1-4.1v-29.1c0-2.3,1.9-3.8,4.1-4.1l13.9-2.1
		c2.3-0.3,4.1,1.9,4.1,4.1v33.2C-139,249.2-140.8,251.4-143.1,251.1L-143.1,251.1z M-161.1,217.4l22-2.1 M-161.1,242.8l18.4,1.7"/>
	<path id="XMLID_64_" class="st3" d="M-149.7,247c0,0.6-0.5,1-1.1,1c-0.5,0-1-0.5-1-1c0-0.6,0.5-1,1-1S-149.7,246.4-149.7,247"/>
	<path id="XMLID_63_" class="st0" d="M-154,214l3.6-0.4"/>
	<path id="XMLID_62_" class="st1" d="M-154,214l3.6-0.4"/>
	<path id="XMLID_61_" class="st0" d="M-148.3,213.2l0.9-0.1"/>
	<path id="XMLID_60_" class="st1" d="M-148.3,213.2l0.9-0.1"/>
	<path id="XMLID_59_" class="st0" d="M-164.6,213.2h-3.4"/>
	<path id="XMLID_58_" class="st1" d="M-164.6,213.2h-3.4"/>
	<path id="XMLID_57_" class="st0" d="M-160.7,209.3v-3.4"/>
	<path id="XMLID_56_" class="st1" d="M-160.7,209.3v-3.4"/>
	<path id="XMLID_55_" class="st0" d="M-163.2,210.4l-2.5-2.3"/>
	<path id="XMLID_54_" class="st1" d="M-163.2,210.4l-2.5-2.3"/>
	<path id="XMLID_53_" class="st2" d="M-142.7,230.1v8.5l-4.8-0.4v-2.6c0-0.2-0.2-0.5-0.5-0.5l-1.6-0.1c-0.3,0-0.5,0.2-0.5,0.4v2.5
		l-4.1-0.3v-7.5l5.3-5.4L-142.7,230.1L-142.7,230.1z"/>
	<path id="XMLID_52_" class="st3" d="M-144.4,228.7v8.5l-4.8-0.4v-2.6c0-0.2-0.2-0.5-0.5-0.5l-1.6-0.1c-0.3,0-0.5,0.2-0.5,0.4v2.5
		l-4.1-0.3v-7.5l5.3-5.4C-150.5,223.4-144.4,228.7-144.4,228.7z"/>
	<path id="XMLID_49_" class="st1" d="M-144.4,228.7v8.5l-4.8-0.4v-2.6c0-0.2-0.2-0.5-0.5-0.5l-1.6-0.1c-0.3,0-0.5,0.2-0.5,0.4v2.5
		l-4.1-0.3v-7.5l5.3-5.4C-150.5,223.4-144.4,228.7-144.4,228.7z M-146.3,226.7v-3V226.7z"/>
</g>
<g id="XMLID_70_">
	<path id="XMLID_102_" class="st0" d="M-81.2,212.8h1.3c2.5-0.3,4.7,1.6,4.7,4.1v25.5c0,2.5-2.2,4.4-4.7,4.1h-1.8"/>
	<path id="XMLID_101_" class="st5" d="M-81.2,212.8h1.3c2.5-0.3,4.7,1.6,4.7,4.1v25.5c0,2.5-2.2,4.4-4.7,4.1h-1.8"/>
	<path id="XMLID_100_" class="st0" d="M-114.4,224v-5.1c0-1.7,1.3-3.1,3-3.4l27.5-3.5c2.5-0.3,4.7,1.6,4.7,4.1v26.7
		c0,2.5-2.2,4.4-4.7,4.1l-27.5-3.5c-1.7-0.2-3-1.7-3-3.4"/>
	<path id="XMLID_99_" class="st1" d="M-114.4,224v-5.1c0-1.7,1.3-3.1,3-3.4l27.5-3.5c2.5-0.3,4.7,1.6,4.7,4.1v26.7
		c0,2.5-2.2,4.4-4.7,4.1l-27.5-3.5c-1.7-0.2-3-1.7-3-3.4"/>
	<path id="XMLID_98_" class="st0" d="M-79.3,217.9l-35.2,3.3"/>
	<path id="XMLID_97_" class="st5" d="M-79.3,217.9l-35.2,3.3"/>
	<path id="XMLID_93_" class="st3" d="M-88.5,216.1c0,0.5-0.4,0.8-0.9,0.8c-0.5,0-0.8-0.4-0.9-0.8c0,0,0,0,0,0c0-0.5,0.4-0.8,0.9-0.8
		C-88.9,215.2-88.5,215.6-88.5,216.1 M-85.6,215.7c0,0.5-0.4,0.8-0.8,0.8c-0.5,0-0.8-0.4-0.9-0.8c0,0,0,0,0,0c0-0.5,0.4-0.8,0.9-0.8
		S-85.6,215.2-85.6,215.7 M-82.9,215.3c0,0.5-0.4,0.8-0.8,0.8c-0.5,0-0.8-0.4-0.9-0.8c0,0,0,0,0,0c0-0.5,0.4-0.8,0.9-0.8
		S-82.9,214.8-82.9,215.3"/>
	<path id="XMLID_92_" class="st2" d="M-97.8,237.8v-9.9c0-1.7-1.5-3-3.2-2.8l-3.3,0.4c-1.5,0.2-2.6,1.4-2.6,2.8v9.3
		c0,1.5,1.2,2.7,2.7,2.8l3.3,0.2C-99.2,240.7-97.8,239.4-97.8,237.8"/>
	<path id="XMLID_91_" class="st0" d="M-85.7,224.7v14.1c0,1.5-1.4,2.7-2.9,2.5l-3.6-0.5c-1.2-0.2-2.2-1.2-2.2-2.5v-13
		c0-1.2,0.9-2.2,2.1-2.4l3.6-0.6C-87.1,222-85.7,223.1-85.7,224.7"/>
	<path id="XMLID_90_" class="st5" d="M-85.7,224.7v14.1c0,1.5-1.4,2.7-2.9,2.5l-3.6-0.5c-1.2-0.2-2.2-1.2-2.2-2.5v-13
		c0-1.2,0.9-2.2,2.1-2.4l3.6-0.6C-87.1,222-85.7,223.1-85.7,224.7z"/>
	<path id="XMLID_89_" class="st0" d="M-111.8,229.4v5.6c0,1.5-1.3,2.6-2.8,2.3l-2.8-0.5c-1.2-0.2-2-1.2-2-2.3v-4.7
		c0-1.2,0.9-2.2,2-2.3l2.8-0.4C-113.1,226.8-111.8,227.9-111.8,229.4"/>
	<path id="XMLID_88_" class="st5" d="M-111.8,229.4v5.6c0,1.5-1.3,2.6-2.8,2.3l-2.8-0.5c-1.2-0.2-2-1.2-2-2.3v-4.7
		c0-1.2,0.9-2.2,2-2.3l2.8-0.4C-113.1,226.8-111.8,227.9-111.8,229.4L-111.8,229.4z"/>
	<path id="XMLID_87_" class="st0" d="M-116.8,216.5h-3.1"/>
	<path id="XMLID_86_" class="st1" d="M-116.8,216.5h-3.1"/>
	<path id="XMLID_85_" class="st0" d="M-113.2,213v-3"/>
	<path id="XMLID_84_" class="st1" d="M-113.2,213v-3"/>
	<path id="XMLID_83_" class="st0" d="M-115.5,214l-2.3-2.1"/>
	<path id="XMLID_82_" class="st1" d="M-115.5,214l-2.3-2.1"/>
	<path id="XMLID_81_" class="st3" d="M-99.5,236.4v-9.3c0-1.6-1.4-2.8-3-2.6l-3.1,0.3c-1.4,0.1-2.4,1.3-2.4,2.6v8.7
		c0,1.4,1.1,2.5,2.5,2.6l3.1,0.2C-100.8,239.1-99.5,237.9-99.5,236.4"/>
	<path id="XMLID_80_" class="st5" d="M-99.5,236.4v-9.3c0-1.6-1.4-2.8-3-2.6l-3.1,0.3c-1.4,0.1-2.4,1.3-2.4,2.6v8.7
		c0,1.4,1.1,2.5,2.5,2.6l3.1,0.2C-100.8,239.1-99.5,237.9-99.5,236.4z"/>
	<g id="XMLID_77_">
		<path id="XMLID_79_" class="st0" d="M-105.5,228.5l3.6-0.3"/>
		<path id="XMLID_78_" class="st1" d="M-105.5,228.5l3.6-0.3"/>
	</g>
	<g id="XMLID_74_">
		<path id="XMLID_76_" class="st0" d="M-105.5,231.9l3.6,0"/>
		<path id="XMLID_75_" class="st1" d="M-105.5,231.9l3.6,0"/>
	</g>
	<g id="XMLID_71_">
		<path id="XMLID_73_" class="st0" d="M-105.5,235.2l3.6,0.2"/>
		<path id="XMLID_72_" class="st1" d="M-105.5,235.2l3.6,0.2"/>
	</g>
</g>
<g id="XMLID_103_">
	<path id="XMLID_121_" class="st0" d="M-51.6,248h-1.3c-1.6,0-3-1.3-3-3c0,0,0,0,0,0v-13.9c0-1.6,1.3-3,3-3c0,0,0,0,0,0h1.3
		c1.6,0,3,1.3,3,3V245C-48.6,246.7-50,248-51.6,248C-51.6,248-51.6,248-51.6,248"/>
	<path id="XMLID_120_" class="st5" d="M-51.6,248h-1.3c-1.6,0-3-1.3-3-3c0,0,0,0,0,0v-13.9c0-1.6,1.3-3,3-3c0,0,0,0,0,0h1.3
		c1.6,0,3,1.3,3,3V245C-48.6,246.7-50,248-51.6,248C-51.6,248-51.6,248-51.6,248L-51.6,248z"/>
	<path id="XMLID_119_" class="st0" d="M-31.1,248h-1.3c-1.6,0-3-1.3-3-3c0,0,0,0,0,0v-29.2c0-1.6,1.3-3,3-3c0,0,0,0,0,0h1.3
		c1.6,0,3,1.3,3,3c0,0,0,0,0,0V245C-28.1,246.7-29.4,248-31.1,248C-31.1,248-31.1,248-31.1,248"/>
	<path id="XMLID_118_" class="st5" d="M-31.1,248h-1.3c-1.6,0-3-1.3-3-3c0,0,0,0,0,0v-29.2c0-1.6,1.3-3,3-3c0,0,0,0,0,0h1.3
		c1.6,0,3,1.3,3,3c0,0,0,0,0,0V245C-28.1,246.7-29.4,248-31.1,248C-31.1,248-31.1,248-31.1,248z"/>
	<path id="XMLID_117_" class="st0" d="M-41.4,248h-1.3c-1.6,0-3-1.3-3-3c0,0,0,0,0,0v-22c0-1.6,1.3-3,3-3c0,0,0,0,0,0h1.3
		c1.6,0,3,1.3,3,3c0,0,0,0,0,0v22C-38.4,246.7-39.8,248-41.4,248C-41.4,248-41.4,248-41.4,248"/>
	<path id="XMLID_114_" class="st1" d="M-38.4,242v3c0,1.6-1.3,3-3,3h-1.3c-1.6,0-3-1.3-3-3v-9.7 M-45.6,226.7V223c0-1.6,1.3-3,3-3
		c0,0,0,0,0,0h1.3c1.6,0,3,1.3,3,3v8.3"/>
	<path id="XMLID_113_" class="st6" d="M-42.1,243.7l-6.3-5.3l-7.3,6.7l-1.2-2.9l8.9-7.7l6.1,5.4l12.4-11.2l-1.6-1.8l1.5-0.3l5.9-1.2
		l-1.9,5.7l-0.5,1.5l-1.6-1.8L-42.1,243.7z"/>
	<path id="XMLID_112_" class="st3" d="M-47.4,229.1l5.9,5.2l13.2-11.2l-1.4-1.9l7.4-1.5l-2.4,7.2l-1.6-1.8l-15.6,13.9l-5.6-5.2
		l-8.6,8.3c0.3,0.6,0.5,1.2,0.5,1.9c0,2.2-1.8,4.1-4.1,4.1c-2.3,0-4.1-1.8-4.1-4.1c0-2.2,1.8-4.1,4.1-4.1c0.6,0,0.7,0.1,1.2,0.3
		L-47.4,229.1z"/>
	<path id="XMLID_111_" class="st1" d="M-47.4,229.1l5.9,5.2l13.2-11.2l-1.4-1.9l7.4-1.5l-2.4,7.2l-1.6-1.8l-15.6,13.9l-5.6-5.2
		l-8.6,8.3c0.3,0.6,0.5,1.2,0.5,1.9c0,2.2-1.8,4.1-4.1,4.1c-2.3,0-4.1-1.8-4.1-4.1c0-2.2,1.8-4.1,4.1-4.1c0.6,0,0.7,0.1,1.2,0.3
		L-47.4,229.1z"/>
	<path id="XMLID_110_" class="st0" d="M-22.3,215.6h3.1"/>
	<path id="XMLID_109_" class="st1" d="M-22.3,215.6h3.1"/>
	<path id="XMLID_108_" class="st0" d="M-25.8,212.1V209"/>
	<path id="XMLID_107_" class="st1" d="M-25.8,212.1V209"/>
	<g id="XMLID_104_">
		<path id="XMLID_106_" class="st0" d="M-23.6,213.1l2.3-2.1"/>
		<path id="XMLID_105_" class="st1" d="M-23.6,213.1l2.3-2.1"/>
	</g>
</g>
<g id="XMLID_122_">
	<path id="XMLID_150_" class="st0" d="M20.6,213.6c-4-2.7-22.6-1-26.6,4.6c-4.3,6-2,22.6,3.4,25.7c2.4,1.4,7,1.2,11.7,0.2
		c0.9,1.4,1.2,3.3,0.9,5c1.7-0.6,3.3-2,4.2-3.8c0.2-0.5,0.4-1,0.5-1.5c0-0.3,0-0.7-0.1-1c4.7-1.5,8.8-3.5,9.9-5.1
		C28.3,231.8,26.4,217.6,20.6,213.6"/>
	<path id="XMLID_149_" class="st1" d="M20.6,213.6c-4-2.7-22.6-1-26.6,4.6c-4.3,6-2,22.6,3.4,25.7c2.4,1.4,7,1.2,11.7,0.2
		c0.9,1.4,1.2,3.3,0.9,5c1.7-0.6,3.3-2,4.2-3.8c0.2-0.5,0.4-1,0.5-1.5c0-0.3,0-0.7-0.1-1c4.7-1.5,8.8-3.5,9.9-5.1
		C28.3,231.8,26.4,217.6,20.6,213.6z"/>
	<path id="XMLID_148_" class="st0" d="M-0.8,225.9l12.2-2.5"/>
	<path id="XMLID_147_" class="st1" d="M-0.8,225.9l12.2-2.5"/>
	<path id="XMLID_146_" class="st0" d="M13.8,223l4.2-0.8"/>
	<path id="XMLID_145_" class="st1" d="M13.8,223l4.2-0.8"/>
	<path id="XMLID_144_" class="st0" d="M17.1,227.7L9.7,229"/>
	<path id="XMLID_143_" class="st1" d="M17.1,227.7L9.7,229"/>
	<path id="XMLID_142_" class="st0" d="M7.2,229.5l-7.6,1.4"/>
	<path id="XMLID_141_" class="st1" d="M7.2,229.5l-7.6,1.4"/>
	<path id="XMLID_140_" class="st0" d="M12,233.7l-11.8,2.3"/>
	<path id="XMLID_139_" class="st1" d="M12,233.7l-11.8,2.3"/>
	<path id="XMLID_138_" class="st2" d="M16.1,223.1c2.6-1.8,15-0.7,17.7,3.1c2.8,4,1.3,15-2.3,17.1c-1.6,0.9-4.6,0.8-7.8,0.1
		c-0.6,0.9-0.8,2.2-0.6,3.3c-1.2-0.4-2.2-1.3-2.8-2.5c-0.2-0.3-0.3-0.7-0.3-1c0-0.2,0-0.5,0.1-0.7c-3.2-1-5.9-2.3-6.6-3.4
		C11,235.2,12.2,225.7,16.1,223.1"/>
	<path id="XMLID_137_" class="st3" d="M18,221.8c2.6-1.8,15-0.7,17.7,3.1c2.8,4,1.3,15-2.3,17.1c-1.6,0.9-4.6,0.8-7.8,0.1
		c-0.6,0.9-0.8,2.2-0.6,3.3c-1.2-0.4-2.2-1.3-2.8-2.5c-0.2-0.3-0.3-0.7-0.3-1c0-0.2,0-0.5,0.1-0.7c-3.2-1-5.9-2.3-6.6-3.4
		C12.9,233.9,14.2,224.4,18,221.8"/>
	<path id="XMLID_136_" class="st5" d="M18,221.8c2.6-1.8,15-0.7,17.7,3.1c2.8,4,1.3,15-2.3,17.1c-1.6,0.9-4.6,0.8-7.8,0.1
		c-0.6,0.9-0.8,2.2-0.6,3.3c-1.2-0.4-2.2-1.3-2.8-2.5c-0.2-0.3-0.3-0.7-0.3-1c0-0.2,0-0.5,0.1-0.7c-3.2-1-5.9-2.3-6.6-3.4
		C12.9,233.9,14.2,224.4,18,221.8z"/>
	<path id="XMLID_132_" class="st0" d="M23.2,230.7c0,1.1-0.7,1.9-1.6,1.9c-0.9,0-1.6-0.9-1.6-1.9c0-1.1,0.7-1.9,1.6-1.9
		C22.5,228.8,23.2,229.7,23.2,230.7 M27.6,231.8c0,1.1-0.7,1.9-1.6,1.9c-0.9,0-1.6-0.9-1.6-1.9s0.7-1.9,1.6-1.9
		S27.6,230.7,27.6,231.8 M32.1,232.7c0,1.1-0.7,1.9-1.6,1.9c-0.9,0-1.6-0.9-1.6-1.9s0.7-1.9,1.6-1.9S32.1,231.7,32.1,232.7"/>
	<g id="XMLID_129_">
		<path id="XMLID_131_" class="st0" d="M30.6,215.9l2.8-0.9"/>
		<path id="XMLID_130_" class="st1" d="M30.6,215.9l2.8-0.9"/>
	</g>
	<g id="XMLID_126_">
		<path id="XMLID_128_" class="st0" d="M26.8,211.3l-0.8-3.3"/>
		<path id="XMLID_127_" class="st1" d="M26.8,211.3l-0.8-3.3"/>
	</g>
	<g id="XMLID_123_">
		<path id="XMLID_125_" class="st0" d="M29.3,212.6l1.5-2.9"/>
		<path id="XMLID_124_" class="st1" d="M29.3,212.6l1.5-2.9"/>
	</g>
</g>
<g id="XMLID_280_">
	<path id="XMLID_297_" class="st0" d="M72.4,276.1c-0.1,0-0.2,0-0.3,0c-2.1,0.1-3.9,1-5.2,2.6c-1.4,1.7-1.9,4.1-1.4,6.4
		c0.8,3.9,4.3,7,8,7c0.8,0,1.6-0.2,2.4-0.4c4.1-1.5,5.3-5.9,4.3-9.3C79.2,278.6,75.9,276.1,72.4,276.1 M71.8,307.1
		c-1.5,0-3-0.2-4.5-0.5c0.6-2.3,0-5.1-2.3-6.4c-0.7-0.4-1.5-0.6-2.3-0.6c-1.9,0-3.7,1.1-4.8,2.2c-2.6-2.3-4.7-5.1-6.1-8.3
		c2.4-1.2,4.3-3.8,3.8-6.6c-0.5-2.8-3.2-4.1-5.7-4.1c0.2-3.1,1.1-6.1,2.7-8.8c0.7,0.2,1.5,0.4,2.3,0.4c1.8,0,3.4-0.7,4.4-1.8
		c0.7-0.8,1-1.7,0.9-2.7c-0.1-0.9-0.5-1.8-1.2-2.6c2.1-1.3,4.4-2.2,6.8-2.6c1,1.5,2.9,2.7,4.8,2.7c1.1,0,2-0.4,2.6-1.1
		c0.3-0.4,0.5-0.9,0.6-1.4c2.1,0.5,4.1,1.3,5.9,2.3c-0.1,0.9,0.1,1.9,0.8,2.8c0.9,1.3,2.4,2.2,3.7,2.2c0.5,0,0.9-0.1,1.2-0.3
		c1.3,1.5,2.5,3.2,3.4,5.1c-0.8,0.6-1.1,1.7-1,2.9c0.2,1.7,1.4,3.6,3.1,4c0.3,2.1,0.3,4.2,0,6.3c-0.2,0-0.3,0-0.5,0
		c-1.2,0-2.2,0.8-2.8,2.2c-0.6,1.7-0.3,3.8,0.7,5.2c-1.2,2-2.7,3.8-4.5,5.3c-0.8-1.2-2-2-3.3-2c-0.5,0-1,0.1-1.4,0.3
		c-2.1,0.9-3.2,3.4-3.3,5.5C74.6,306.9,73.2,307.1,71.8,307.1"/>
	<path id="XMLID_294_" class="st1" d="M72.4,276.1c-0.1,0-0.2,0-0.3,0c-2.1,0.1-3.9,1-5.2,2.6c-1.4,1.7-1.9,4.1-1.4,6.4
		c0.8,3.9,4.3,7,8,7c0.8,0,1.6-0.2,2.4-0.4c4.1-1.5,5.3-5.9,4.3-9.3C79.2,278.6,75.9,276.1,72.4,276.1z M71.8,307.1
		c-1.5,0-3-0.2-4.5-0.5c0.6-2.3,0-5.1-2.3-6.4c-0.7-0.4-1.5-0.6-2.3-0.6c-1.9,0-3.7,1.1-4.8,2.2c-2.6-2.3-4.7-5.1-6.1-8.3
		c2.4-1.2,4.3-3.8,3.8-6.6c-0.5-2.8-3.2-4.1-5.7-4.1c0.2-3.1,1.1-6.1,2.7-8.8c0.7,0.2,1.5,0.4,2.3,0.4c1.8,0,3.4-0.7,4.4-1.8
		c0.7-0.8,1-1.7,0.9-2.7c-0.1-0.9-0.5-1.8-1.2-2.6c2.1-1.3,4.4-2.2,6.8-2.6c1,1.5,2.9,2.7,4.8,2.7c1.1,0,2-0.4,2.6-1.1
		c0.3-0.4,0.5-0.9,0.6-1.4c2.1,0.5,4.1,1.3,5.9,2.3c-0.1,0.9,0.1,1.9,0.8,2.8c0.9,1.3,2.4,2.2,3.7,2.2c0.5,0,0.9-0.1,1.2-0.3
		c1.3,1.5,2.5,3.2,3.4,5.1c-0.8,0.6-1.1,1.7-1,2.9c0.2,1.7,1.4,3.6,3.1,4c0.3,2.1,0.3,4.2,0,6.3c-0.2,0-0.3,0-0.5,0
		c-1.2,0-2.2,0.8-2.8,2.2c-0.6,1.7-0.3,3.8,0.7,5.2c-1.2,2-2.7,3.8-4.5,5.3c-0.8-1.2-2-2-3.3-2c-0.5,0-1,0.1-1.4,0.3
		c-2.1,0.9-3.2,3.4-3.3,5.5C74.6,306.9,73.2,307.1,71.8,307.1L71.8,307.1z"/>
	<path id="XMLID_293_" class="st2" d="M78.9,299c-7.8,2.9-15.8-3.2-17.3-10.8c-1.5-7.2,3-14.5,10.9-14.8c6.4-0.3,11.8,4.3,13.5,10.2
		C87.7,289.6,85.2,296.7,78.9,299"/>
	<path id="XMLID_292_" class="st7" d="M77.5,297.2c-7.8,2.9-15.8-3.2-17.3-10.8c-1.5-7.2,3-14.5,10.9-14.8
		c6.4-0.3,11.8,4.3,13.5,10.2C86.3,287.8,83.9,294.9,77.5,297.2"/>
	<path id="XMLID_291_" class="st1" d="M77.5,297.2c-7.8,2.9-15.8-3.2-17.3-10.8c-1.5-7.2,3-14.5,10.9-14.8
		c6.4-0.3,11.8,4.3,13.5,10.2C86.3,287.8,83.9,294.9,77.5,297.2z"/>
	<path id="XMLID_287_" class="st0" d="M64.7,285.7c0.4,2.9,3.3,4.5,6.2,3.8l0.7-0.2l-0.2-1.7l-0.7,0.1c-1.8,0.4-3.5-0.7-3.7-2.4
		c-0.2-1.7,1.2-3.2,3-3.3l1.6-0.1l1.1,8.5c0.1,0.9,0.9,1.4,1.8,1.1L73,280.4l-3.3,0C66.8,280.5,64.3,282.8,64.7,285.7 M76.8,280.4
		l-0.5,0l0.2,1.4l0.5,0c1.1-0.1,2.1,0.9,2.3,2.1c0.2,1.2-0.6,2.4-1.7,2.6l-1.2,0.2l-0.9-7.5c-0.1-0.8-0.8-1.5-1.6-1.5l1.4,10.8
		l2.5-0.6c1.7-0.4,2.8-2.2,2.6-4.1C80.1,281.9,78.6,280.4,76.8,280.4 M87,269.1l3-0.8"/>
	<path id="XMLID_286_" class="st1" d="M87,269.1l3-0.8"/>
	<path id="XMLID_285_" class="st0" d="M83,264.9l-0.8-3"/>
	<path id="XMLID_284_" class="st1" d="M83,264.9l-0.8-3"/>
	<g id="XMLID_281_">
		<path id="XMLID_283_" class="st0" d="M85.6,266.1l1.7-2.6"/>
		<path id="XMLID_282_" class="st1" d="M85.6,266.1l1.7-2.6"/>
	</g>
</g>
<g id="XMLID_254_">
	<path id="XMLID_279_" class="st0" d="M-227.3,280.8c0,0-1.7,7.8-2.5,13c-0.8,5.1,3,6.5,3,6.5l22.4,6.5c-2.6-1.1-1.6-5.2-1.6-5.2
		s4.3-22.4,5.8-29c1.5-6.6-5.1-5.6-5.1-5.6l-19.7,0.9"/>
	<path id="XMLID_278_" class="st1" d="M-227.3,280.8c0,0-1.7,7.8-2.5,13c-0.8,5.1,3,6.5,3,6.5l22.4,6.5c-2.6-1.1-1.6-5.2-1.6-5.2
		s4.3-22.4,5.8-29c1.5-6.6-5.1-5.6-5.1-5.6l-19.7,0.9"/>
	<path id="XMLID_277_" class="st0" d="M-202.1,281.8h13.9c0,0-4,1.8-4.9,6.8c-0.7,4-2.7,12.6-2.7,12.6s-1.3,7.1-7.8,5.6
		c0,0-3.4-0.3-2.4-5.6C-205.1,296.2-202.1,281.8-202.1,281.8"/>
	<path id="XMLID_276_" class="st1" d="M-202.1,281.8h13.9c0,0-4,1.8-4.9,6.8c-0.7,4-2.7,12.6-2.7,12.6s-1.3,7.1-7.8,5.6
		c0,0-3.4-0.3-2.4-5.6C-205.1,296.2-202.1,281.8-202.1,281.8z"/>
	<path id="XMLID_275_" class="st7" d="M-230.1,277.2c0,0-2.7-5.7,2.4-8.7c0.9-0.5,2-0.8,3-0.9l19.8-0.9c0,0-4.8,2.7-3.2,10.7
		L-230.1,277.2L-230.1,277.2z"/>
	<path id="XMLID_270_" class="st1" d="M-230.1,277.2c0,0-2.7-5.7,2.4-8.7c0.9-0.5,2-0.8,3-0.9l19.8-0.9c0,0-4.8,2.7-3.2,10.7
		L-230.1,277.2L-230.1,277.2z M-223.3,283.2l7.2,0.5 M-223.9,288.4l3.6,0.3 M-224.8,293.5l6.3,1.4"/>
	<path id="XMLID_269_" class="st2" d="M-197.5,293.7c0,4.3-3.5,7.8-7.9,7.8c-4.3,0-7.9-3.5-7.9-7.8c0-4.3,3.5-7.8,7.9-7.8
		C-201,285.9-197.5,289.4-197.5,293.7"/>
	<path id="XMLID_268_" class="st7" d="M-199.1,292.1c0,4.3-3.5,7.8-7.9,7.8c-4.3,0-7.9-3.5-7.9-7.8c0-4.3,3.5-7.8,7.9-7.8
		C-202.7,284.3-199.1,287.8-199.1,292.1"/>
	<path id="XMLID_267_" class="st1" d="M-199.1,292.1c0,4.3-3.5,7.8-7.9,7.8c-4.3,0-7.9-3.5-7.9-7.8c0-4.3,3.5-7.8,7.9-7.8
		C-202.7,284.3-199.1,287.8-199.1,292.1L-199.1,292.1z"/>
	<path id="XMLID_262_" class="st0" d="M-205.9,294c0.1-0.1,0.2-0.3,0.2-0.4c0-0.2-0.1-0.3-0.2-0.4c-0.2-0.1-0.3-0.2-0.5-0.3v1.4
		C-206.2,294.2-206,294.1-205.9,294 M-208,291c0.1,0.1,0.3,0.2,0.5,0.3v-1.4c-0.3,0.1-0.4,0.2-0.6,0.3c-0.1,0.1-0.2,0.3-0.2,0.4
		C-208.2,290.7-208.1,290.9-208,291 M-204.7,294.9c-0.4,0.4-1,0.6-1.7,0.7v1.1h-1v-1.1c-0.5,0-0.9-0.1-1.4-0.3
		c-0.4-0.1-0.8-0.3-1.1-0.5l0.5-1.2c0.3,0.2,0.5,0.3,0.9,0.5s0.7,0.2,1,0.2v-1.6c-0.4-0.1-0.8-0.2-1.2-0.4c-0.3-0.1-0.6-0.3-0.8-0.6
		c-0.2-0.3-0.3-0.6-0.3-1.1c0-0.5,0.2-1,0.6-1.4c0.4-0.4,1-0.6,1.7-0.7v-1.1h1v1.1c0.8,0.1,1.5,0.3,2,0.6l-0.5,1.2
		c-0.5-0.3-1-0.4-1.5-0.5v1.7c0.5,0.1,0.9,0.2,1.2,0.4c0.3,0.1,0.6,0.3,0.8,0.6c0.2,0.3,0.3,0.6,0.3,1
		C-204.1,294-204.3,294.5-204.7,294.9 M-195.5,270.6h3.3"/>
	<path id="XMLID_261_" class="st1" d="M-195.5,270.6h3.3"/>
	<g id="XMLID_258_">
		<path id="XMLID_260_" class="st0" d="M-198.5,265.2v-3.3"/>
		<path id="XMLID_259_" class="st1" d="M-198.5,265.2v-3.3"/>
	</g>
	<g id="XMLID_255_">
		<path id="XMLID_257_" class="st0" d="M-196.1,267.1l2.5-2.2"/>
		<path id="XMLID_256_" class="st1" d="M-196.1,267.1l2.5-2.2"/>
	</g>
</g>
<g id="XMLID_232_">
	<path id="XMLID_253_" class="st0" d="M-143.1,307.1L-157,305c-2.7-0.4-4.1-1.9-4.1-4.1v-29.1c0-2.3,1.9-3.8,4.1-4.1l13.9-2.1
		c2.3-0.3,4.1,1.9,4.1,4.1v33.2C-139,305.2-140.8,307.4-143.1,307.1"/>
	<path id="XMLID_249_" class="st1" d="M-143.1,307.1L-157,305c-2.7-0.4-4.1-1.9-4.1-4.1v-29.1c0-2.3,1.9-3.8,4.1-4.1l13.9-2.1
		c2.3-0.3,4.1,1.9,4.1,4.1v33.2C-139,305.2-140.8,307.4-143.1,307.1L-143.1,307.1z M-161.1,273.4l22-2.1 M-161.1,298.8l18.4,1.7"/>
	<path id="XMLID_248_" class="st3" d="M-149.7,303c0,0.6-0.5,1-1.1,1c-0.5,0-1-0.5-1-1c0-0.6,0.5-1,1-1S-149.7,302.4-149.7,303"/>
	<path id="XMLID_247_" class="st0" d="M-154,270l3.6-0.4"/>
	<path id="XMLID_246_" class="st1" d="M-154,270l3.6-0.4"/>
	<path id="XMLID_245_" class="st0" d="M-148.3,269.2l0.9-0.1"/>
	<path id="XMLID_244_" class="st1" d="M-148.3,269.2l0.9-0.1"/>
	<path id="XMLID_243_" class="st0" d="M-164.6,269.2h-3.4"/>
	<path id="XMLID_242_" class="st1" d="M-164.6,269.2h-3.4"/>
	<path id="XMLID_241_" class="st0" d="M-160.7,265.3v-3.4"/>
	<path id="XMLID_240_" class="st1" d="M-160.7,265.3v-3.4"/>
	<path id="XMLID_239_" class="st0" d="M-163.2,266.4l-2.5-2.3"/>
	<path id="XMLID_238_" class="st1" d="M-163.2,266.4l-2.5-2.3"/>
	<path id="XMLID_237_" class="st2" d="M-142.7,286.1v8.5l-4.8-0.4v-2.6c0-0.2-0.2-0.5-0.5-0.5l-1.6-0.1c-0.3,0-0.5,0.2-0.5,0.4v2.5
		l-4.1-0.3v-7.5l5.3-5.4L-142.7,286.1L-142.7,286.1z"/>
	<path id="XMLID_236_" class="st7" d="M-144.4,284.7v8.5l-4.8-0.4v-2.6c0-0.2-0.2-0.5-0.5-0.5l-1.6-0.1c-0.3,0-0.5,0.2-0.5,0.4v2.5
		l-4.1-0.3v-7.5l5.3-5.4C-150.5,279.4-144.4,284.7-144.4,284.7z"/>
	<path id="XMLID_233_" class="st1" d="M-144.4,284.7v8.5l-4.8-0.4v-2.6c0-0.2-0.2-0.5-0.5-0.5l-1.6-0.1c-0.3,0-0.5,0.2-0.5,0.4v2.5
		l-4.1-0.3v-7.5l5.3-5.4C-150.5,279.4-144.4,284.7-144.4,284.7z M-146.3,282.7v-3V282.7z"/>
</g>
<g id="XMLID_199_">
	<path id="XMLID_231_" class="st0" d="M-81.2,268.8h1.3c2.5-0.3,4.7,1.6,4.7,4.1v25.5c0,2.5-2.2,4.4-4.7,4.1h-1.8"/>
	<path id="XMLID_230_" class="st5" d="M-81.2,268.8h1.3c2.5-0.3,4.7,1.6,4.7,4.1v25.5c0,2.5-2.2,4.4-4.7,4.1h-1.8"/>
	<path id="XMLID_229_" class="st0" d="M-114.4,280v-5.1c0-1.7,1.3-3.1,3-3.4l27.5-3.5c2.5-0.3,4.7,1.6,4.7,4.1v26.7
		c0,2.5-2.2,4.4-4.7,4.1l-27.5-3.5c-1.7-0.2-3-1.7-3-3.4"/>
	<path id="XMLID_228_" class="st1" d="M-114.4,280v-5.1c0-1.7,1.3-3.1,3-3.4l27.5-3.5c2.5-0.3,4.7,1.6,4.7,4.1v26.7
		c0,2.5-2.2,4.4-4.7,4.1l-27.5-3.5c-1.7-0.2-3-1.7-3-3.4"/>
	<path id="XMLID_227_" class="st0" d="M-79.3,273.9l-35.2,3.3"/>
	<path id="XMLID_226_" class="st5" d="M-79.3,273.9l-35.2,3.3"/>
	<path id="XMLID_222_" class="st3" d="M-88.5,272.1c0,0.5-0.4,0.8-0.9,0.8c-0.5,0-0.8-0.4-0.9-0.8c0,0,0,0,0,0
		c0-0.5,0.4-0.8,0.9-0.8C-88.9,271.2-88.5,271.6-88.5,272.1 M-85.6,271.7c0,0.5-0.4,0.8-0.8,0.8c-0.5,0-0.8-0.4-0.9-0.8c0,0,0,0,0,0
		c0-0.5,0.4-0.8,0.9-0.8S-85.6,271.2-85.6,271.7 M-82.9,271.3c0,0.5-0.4,0.8-0.8,0.8c-0.5,0-0.8-0.4-0.9-0.8c0,0,0,0,0,0
		c0-0.5,0.4-0.8,0.9-0.8S-82.9,270.8-82.9,271.3"/>
	<path id="XMLID_221_" class="st2" d="M-97.8,293.8v-9.9c0-1.7-1.5-3-3.2-2.8l-3.3,0.3c-1.5,0.2-2.6,1.4-2.6,2.8v9.3
		c0,1.5,1.2,2.7,2.7,2.8l3.3,0.2C-99.2,296.7-97.8,295.4-97.8,293.8"/>
	<path id="XMLID_220_" class="st0" d="M-85.7,280.7v14.1c0,1.5-1.4,2.7-2.9,2.5l-3.6-0.5c-1.2-0.2-2.2-1.2-2.2-2.5v-13
		c0-1.2,0.9-2.2,2.1-2.4l3.6-0.6C-87.1,278-85.7,279.1-85.7,280.7"/>
	<path id="XMLID_219_" class="st5" d="M-85.7,280.7v14.1c0,1.5-1.4,2.7-2.9,2.5l-3.6-0.5c-1.2-0.2-2.2-1.2-2.2-2.5v-13
		c0-1.2,0.9-2.2,2.1-2.4l3.6-0.6C-87.1,278-85.7,279.1-85.7,280.7z"/>
	<path id="XMLID_218_" class="st0" d="M-111.8,285.4v5.6c0,1.5-1.3,2.6-2.8,2.3l-2.8-0.5c-1.2-0.2-2-1.2-2-2.3v-4.7
		c0-1.2,0.9-2.2,2-2.3l2.8-0.4C-113.1,282.8-111.8,283.9-111.8,285.4"/>
	<path id="XMLID_217_" class="st5" d="M-111.8,285.4v5.6c0,1.5-1.3,2.6-2.8,2.3l-2.8-0.5c-1.2-0.2-2-1.2-2-2.3v-4.7
		c0-1.2,0.9-2.2,2-2.3l2.8-0.4C-113.1,282.8-111.8,283.9-111.8,285.4L-111.8,285.4z"/>
	<path id="XMLID_216_" class="st0" d="M-116.8,272.5h-3.1"/>
	<path id="XMLID_215_" class="st1" d="M-116.8,272.5h-3.1"/>
	<path id="XMLID_214_" class="st0" d="M-113.2,269v-3"/>
	<path id="XMLID_213_" class="st1" d="M-113.2,269v-3"/>
	<path id="XMLID_212_" class="st0" d="M-115.5,270l-2.3-2.1"/>
	<path id="XMLID_211_" class="st1" d="M-115.5,270l-2.3-2.1"/>
	<path id="XMLID_210_" class="st7" d="M-99.5,292.4v-9.3c0-1.6-1.4-2.8-3-2.6l-3.1,0.3c-1.4,0.1-2.4,1.3-2.4,2.6v8.7
		c0,1.4,1.1,2.5,2.5,2.6l3.1,0.2C-100.8,295.1-99.5,293.9-99.5,292.4"/>
	<path id="XMLID_209_" class="st5" d="M-99.5,292.4v-9.3c0-1.6-1.4-2.8-3-2.6l-3.1,0.3c-1.4,0.1-2.4,1.3-2.4,2.6v8.7
		c0,1.4,1.1,2.5,2.5,2.6l3.1,0.2C-100.8,295.1-99.5,293.9-99.5,292.4z"/>
	<g id="XMLID_206_">
		<path id="XMLID_208_" class="st0" d="M-105.5,284.5l3.6-0.3"/>
		<path id="XMLID_207_" class="st1" d="M-105.5,284.5l3.6-0.3"/>
	</g>
	<g id="XMLID_203_">
		<path id="XMLID_205_" class="st0" d="M-105.5,287.9l3.6,0"/>
		<path id="XMLID_204_" class="st1" d="M-105.5,287.9l3.6,0"/>
	</g>
	<g id="XMLID_200_">
		<path id="XMLID_202_" class="st0" d="M-105.5,291.2l3.6,0.2"/>
		<path id="XMLID_201_" class="st1" d="M-105.5,291.2l3.6,0.2"/>
	</g>
</g>
<g id="XMLID_180_">
	<path id="XMLID_198_" class="st0" d="M-51.6,304h-1.3c-1.6,0-3-1.3-3-3c0,0,0,0,0,0v-13.9c0-1.6,1.3-3,3-3c0,0,0,0,0,0h1.3
		c1.6,0,3,1.3,3,3V301C-48.6,302.7-50,304-51.6,304C-51.6,304-51.6,304-51.6,304"/>
	<path id="XMLID_197_" class="st5" d="M-51.6,304h-1.3c-1.6,0-3-1.3-3-3c0,0,0,0,0,0v-13.9c0-1.6,1.3-3,3-3c0,0,0,0,0,0h1.3
		c1.6,0,3,1.3,3,3V301C-48.6,302.7-50,304-51.6,304C-51.6,304-51.6,304-51.6,304L-51.6,304z"/>
	<path id="XMLID_196_" class="st0" d="M-31.1,304h-1.3c-1.6,0-3-1.3-3-3c0,0,0,0,0,0v-29.2c0-1.6,1.3-3,3-3c0,0,0,0,0,0h1.3
		c1.6,0,3,1.3,3,3c0,0,0,0,0,0V301C-28.1,302.7-29.4,304-31.1,304C-31.1,304-31.1,304-31.1,304"/>
	<path id="XMLID_195_" class="st5" d="M-31.1,304h-1.3c-1.6,0-3-1.3-3-3c0,0,0,0,0,0v-29.2c0-1.6,1.3-3,3-3c0,0,0,0,0,0h1.3
		c1.6,0,3,1.3,3,3c0,0,0,0,0,0V301C-28.1,302.7-29.4,304-31.1,304C-31.1,304-31.1,304-31.1,304z"/>
	<path id="XMLID_194_" class="st0" d="M-41.4,304h-1.3c-1.6,0-3-1.3-3-3c0,0,0,0,0,0v-22c0-1.6,1.3-3,3-3c0,0,0,0,0,0h1.3
		c1.6,0,3,1.3,3,3c0,0,0,0,0,0v22C-38.4,302.7-39.8,304-41.4,304C-41.4,304-41.4,304-41.4,304"/>
	<path id="XMLID_191_" class="st1" d="M-38.4,298v3c0,1.6-1.3,3-3,3h-1.3c-1.6,0-3-1.3-3-3v-9.7 M-45.6,282.7V279c0-1.6,1.3-3,3-3
		c0,0,0,0,0,0h1.3c1.6,0,3,1.3,3,3v8.3"/>
	<path id="XMLID_190_" class="st6" d="M-42.1,299.7l-6.3-5.3l-7.3,6.7l-1.2-2.9l8.9-7.7l6.1,5.4l12.4-11.2l-1.6-1.8l1.5-0.3l5.9-1.2
		l-1.9,5.7l-0.5,1.5l-1.6-1.8L-42.1,299.7z"/>
	<path id="XMLID_189_" class="st7" d="M-47.4,285.1l5.9,5.2l13.2-11.2l-1.4-1.9l7.4-1.5l-2.4,7.2l-1.6-1.8l-15.6,13.9l-5.6-5.2
		l-8.6,8.3c0.3,0.6,0.5,1.2,0.5,1.9c0,2.2-1.8,4.1-4.1,4.1s-4.1-1.8-4.1-4.1c0-2.2,1.8-4.1,4.1-4.1c0.6,0,0.7,0.1,1.2,0.3
		L-47.4,285.1z"/>
	<path id="XMLID_188_" class="st1" d="M-47.4,285.1l5.9,5.2l13.2-11.2l-1.4-1.9l7.4-1.5l-2.4,7.2l-1.6-1.8l-15.6,13.9l-5.6-5.2
		l-8.6,8.3c0.3,0.6,0.5,1.2,0.5,1.9c0,2.2-1.8,4.1-4.1,4.1s-4.1-1.8-4.1-4.1c0-2.2,1.8-4.1,4.1-4.1c0.6,0,0.7,0.1,1.2,0.3
		L-47.4,285.1z"/>
	<path id="XMLID_187_" class="st0" d="M-22.3,271.6h3.1"/>
	<path id="XMLID_186_" class="st1" d="M-22.3,271.6h3.1"/>
	<path id="XMLID_185_" class="st0" d="M-25.8,268V265"/>
	<path id="XMLID_184_" class="st1" d="M-25.8,268V265"/>
	<g id="XMLID_181_">
		<path id="XMLID_183_" class="st0" d="M-23.6,269.1l2.3-2.1"/>
		<path id="XMLID_182_" class="st1" d="M-23.6,269.1l2.3-2.1"/>
	</g>
</g>
<g id="XMLID_151_">
	<path id="XMLID_179_" class="st0" d="M20.6,269.6c-4-2.7-22.6-1-26.6,4.6c-4.3,6-2,22.6,3.4,25.7c2.4,1.4,7,1.2,11.7,0.2
		c0.9,1.4,1.2,3.3,0.9,5c1.7-0.6,3.3-2,4.2-3.8c0.2-0.5,0.4-1,0.5-1.5c0-0.3,0-0.7-0.1-1c4.7-1.5,8.8-3.5,9.9-5.1
		C28.3,287.8,26.4,273.6,20.6,269.6"/>
	<path id="XMLID_178_" class="st1" d="M20.6,269.6c-4-2.7-22.6-1-26.6,4.6c-4.3,6-2,22.6,3.4,25.7c2.4,1.4,7,1.2,11.7,0.2
		c0.9,1.4,1.2,3.3,0.9,5c1.7-0.6,3.3-2,4.2-3.8c0.2-0.5,0.4-1,0.5-1.5c0-0.3,0-0.7-0.1-1c4.7-1.5,8.8-3.5,9.9-5.1
		C28.3,287.8,26.4,273.6,20.6,269.6z"/>
	<path id="XMLID_177_" class="st0" d="M-0.8,281.9l12.2-2.5"/>
	<path id="XMLID_176_" class="st1" d="M-0.8,281.9l12.2-2.5"/>
	<path id="XMLID_175_" class="st0" d="M13.8,279l4.2-0.8"/>
	<path id="XMLID_174_" class="st1" d="M13.8,279l4.2-0.8"/>
	<path id="XMLID_173_" class="st0" d="M17.1,283.7L9.7,285"/>
	<path id="XMLID_172_" class="st1" d="M17.1,283.7L9.7,285"/>
	<path id="XMLID_171_" class="st0" d="M7.2,285.5l-7.6,1.4"/>
	<path id="XMLID_170_" class="st1" d="M7.2,285.5l-7.6,1.4"/>
	<path id="XMLID_169_" class="st0" d="M12,289.7l-11.8,2.3"/>
	<path id="XMLID_168_" class="st1" d="M12,289.7l-11.8,2.3"/>
	<path id="XMLID_167_" class="st2" d="M16.1,279.1c2.6-1.8,15-0.7,17.7,3.1c2.8,4,1.3,15-2.3,17.1c-1.6,0.9-4.6,0.8-7.8,0.1
		c-0.6,0.9-0.8,2.2-0.6,3.3c-1.2-0.4-2.2-1.3-2.8-2.5c-0.2-0.3-0.3-0.7-0.3-1c0-0.2,0-0.5,0.1-0.7c-3.2-1-5.9-2.3-6.6-3.4
		C11,291.2,12.2,281.7,16.1,279.1"/>
	<path id="XMLID_166_" class="st7" d="M18,277.8c2.6-1.8,15-0.7,17.7,3.1c2.8,4,1.3,15-2.3,17.1c-1.6,0.9-4.6,0.8-7.8,0.1
		c-0.6,0.9-0.8,2.2-0.6,3.3c-1.2-0.4-2.2-1.3-2.8-2.5c-0.2-0.3-0.3-0.7-0.3-1c0-0.2,0-0.5,0.1-0.7c-3.2-1-5.9-2.3-6.6-3.4
		C12.9,289.9,14.2,280.4,18,277.8"/>
	<path id="XMLID_165_" class="st5" d="M18,277.8c2.6-1.8,15-0.7,17.7,3.1c2.8,4,1.3,15-2.3,17.1c-1.6,0.9-4.6,0.8-7.8,0.1
		c-0.6,0.9-0.8,2.2-0.6,3.3c-1.2-0.4-2.2-1.3-2.8-2.5c-0.2-0.3-0.3-0.7-0.3-1c0-0.2,0-0.5,0.1-0.7c-3.2-1-5.9-2.3-6.6-3.4
		C12.9,289.9,14.2,280.4,18,277.8z"/>
	<path id="XMLID_161_" class="st0" d="M23.2,286.7c0,1.1-0.7,1.9-1.6,1.9c-0.9,0-1.6-0.9-1.6-1.9c0-1.1,0.7-1.9,1.6-1.9
		C22.5,284.8,23.2,285.7,23.2,286.7 M27.6,287.8c0,1.1-0.7,1.9-1.6,1.9c-0.9,0-1.6-0.9-1.6-1.9c0-1.1,0.7-1.9,1.6-1.9
		S27.6,286.7,27.6,287.8 M32.1,288.7c0,1.1-0.7,1.9-1.6,1.9c-0.9,0-1.6-0.9-1.6-1.9c0-1.1,0.7-1.9,1.6-1.9S32.1,287.7,32.1,288.7"/>
	<g id="XMLID_158_">
		<path id="XMLID_160_" class="st0" d="M30.6,271.9l2.8-0.9"/>
		<path id="XMLID_159_" class="st1" d="M30.6,271.9l2.8-0.9"/>
	</g>
	<g id="XMLID_155_">
		<path id="XMLID_157_" class="st0" d="M26.8,267.3l-0.8-3.3"/>
		<path id="XMLID_156_" class="st1" d="M26.8,267.3l-0.8-3.3"/>
	</g>
	<g id="XMLID_152_">
		<path id="XMLID_154_" class="st0" d="M29.3,268.6l1.5-2.9"/>
		<path id="XMLID_153_" class="st1" d="M29.3,268.6l1.5-2.9"/>
	</g>
</g>
<g id="XMLID_300_" class="st8">
	<rect id="XMLID_1_" x="-237.5" y="200.5" class="st9" width="56" height="56"/>
	<rect id="XMLID_331_" x="-237.5" y="256.5" class="st9" width="56" height="56"/>
	<rect id="XMLID_333_" x="-181.5" y="200.5" class="st9" width="56" height="56"/>
	<rect id="XMLID_332_" x="-181.5" y="256.5" class="st9" width="56" height="56"/>
	<rect id="XMLID_335_" x="-125.5" y="200.5" class="st9" width="56" height="56"/>
	<rect id="XMLID_334_" x="-125.5" y="256.5" class="st9" width="56" height="56"/>
	<rect id="XMLID_337_" x="-69.5" y="200.5" class="st9" width="56" height="56"/>
	<rect id="XMLID_336_" x="-69.5" y="256.5" class="st9" width="56" height="56"/>
	<rect id="XMLID_339_" x="-13.5" y="200.5" class="st9" width="56" height="56"/>
	<rect id="XMLID_338_" x="-13.5" y="256.5" class="st9" width="56" height="56"/>
	<rect id="XMLID_341_" x="42.5" y="200.5" class="st9" width="56" height="56"/>
	<rect id="XMLID_340_" x="42.5" y="256.5" class="st9" width="56" height="56"/>
</g>
</svg>
