<?xml version="1.0" standalone="no"?>
<!DOCTYPE svg PUBLIC "-//W3C//DTD SVG 20010904//EN"
 "http://www.w3.org/TR/2001/REC-SVG-20010904/DTD/svg10.dtd">
<svg version="1.0" xmlns="http://www.w3.org/2000/svg"
 width="1920.000000pt" height="1080.000000pt" viewBox="0 0 1920.000000 1080.000000"
 preserveAspectRatio="xMidYMid meet">

<g transform="translate(0.000000,1080.000000) scale(0.100000,-0.100000)"
fill="#000000" stroke="none">
<path d="M1100 9560 c0 -115 18 -137 22 -27 l3 72 33 -57 c19 -32 38 -58 43
-58 5 0 22 26 38 58 l30 57 1 -72 c0 -59 3 -73 15 -73 13 0 15 15 13 97 -2 65
-7 98 -15 100 -7 3 -26 -23 -45 -61 -18 -36 -35 -66 -39 -66 -4 0 -22 29 -40
65 -48 93 -59 86 -59 -35z"/>
<path d="M1340 9560 l0 -100 49 0 c87 0 134 69 98 146 -17 34 -60 54 -119 54
l-28 0 0 -100z m117 54 c7 -10 13 -37 13 -60 0 -50 -25 -74 -77 -74 l-33 0 0
81 0 82 42 -6 c23 -3 48 -14 55 -23z"/>
<path d="M1537 9653 c-4 -3 -7 -48 -7 -100 0 -76 3 -93 15 -93 12 0 15 15 15
73 l1 72 30 -57 c16 -32 34 -58 39 -58 5 0 21 22 35 49 37 74 45 72 45 -8 0
-41 4 -71 10 -71 6 0 10 40 10 100 0 121 -10 127 -59 35 -19 -36 -38 -65 -41
-65 -3 0 -20 29 -38 65 -30 62 -41 73 -55 58z"/>
<path d="M1871 9634 c-27 -22 -31 -32 -31 -75 0 -66 30 -99 90 -99 39 0 80 26
80 50 0 16 -15 12 -35 -10 -10 -11 -31 -20 -47 -20 -65 0 -93 86 -43 135 29
30 58 32 85 5 21 -21 40 -26 40 -11 0 18 -53 51 -81 51 -15 0 -41 -12 -58 -26z"/>
<path d="M16720 9593 c0 -92 -7 -113 -36 -113 -13 0 -27 8 -33 17 -5 10 -13
14 -17 10 -15 -15 13 -42 47 -45 23 -3 37 2 46 14 16 21 18 184 3 184 -6 0
-10 -29 -10 -67z"/>
<path d="M17343 9647 c-25 -11 -32 -30 -8 -21 13 5 15 -8 15 -80 0 -70 3 -86
15 -86 12 0 15 17 15 94 0 52 -3 97 -7 99 -5 3 -18 0 -30 -6z"/>
<path d="M17560 9640 c-20 -20 -26 -40 -12 -40 4 0 13 9 20 20 27 44 82 7 63
-42 -5 -13 -28 -41 -50 -63 -23 -21 -41 -43 -41 -47 0 -4 29 -8 65 -8 37 0 65
4 65 10 0 6 -21 10 -47 10 l-47 0 31 33 c56 59 67 101 35 130 -25 23 -58 21
-82 -3z"/>
<path d="M17725 9635 c-20 -19 -25 -34 -25 -73 0 -67 27 -102 80 -102 53 0 80
35 80 102 0 60 -31 98 -80 98 -19 0 -40 -9 -55 -25z m95 -22 c17 -22 21 -37
17 -66 -7 -49 -22 -67 -58 -67 -49 0 -76 69 -48 123 24 45 58 49 89 10z"/>
<path d="M17916 9644 c-16 -15 -22 -44 -10 -44 3 0 14 10 23 21 25 31 61 18
61 -22 0 -23 -12 -42 -50 -79 -27 -27 -50 -51 -50 -54 0 -3 29 -6 65 -6 37 0
65 4 65 10 0 6 -20 10 -43 10 l-44 0 39 40 c31 33 38 48 38 80 0 29 -5 42 -19
50 -28 14 -57 12 -75 -6z"/>
<path d="M18061 9646 c-23 -13 -23 -13 -2 -19 19 -5 21 -12 21 -86 0 -47 4
-81 10 -81 6 0 10 40 10 100 0 55 -3 100 -7 100 -5 -1 -19 -7 -32 -14z"/>
<path d="M2060 9580 c-43 -43 -14 -120 45 -120 36 0 75 36 75 70 0 10 -9 29
-21 44 -25 32 -70 35 -99 6z m78 -12 c7 -7 12 -24 12 -38 0 -52 -61 -71 -82
-25 -23 51 32 101 70 63z"/>
<path d="M2210 9530 c0 -40 4 -70 10 -70 6 0 10 18 10 41 0 50 15 79 40 79 25
0 40 -29 40 -79 0 -59 18 -50 22 10 3 55 21 78 52 66 12 -5 16 -20 16 -62 0
-30 5 -55 10 -55 14 0 12 114 -2 128 -14 14 -64 16 -72 3 -4 -5 -19 -5 -36 2
-23 9 -35 9 -50 -1 -12 -7 -20 -8 -20 -2 0 5 -4 10 -10 10 -6 0 -10 -30 -10
-70z"/>
<path d="M2460 9500 c0 -82 3 -100 15 -100 10 0 15 10 15 33 0 32 1 33 35 29
48 -6 75 19 75 68 0 59 -49 87 -101 60 -13 -7 -19 -7 -19 0 0 5 -4 10 -10 10
-6 0 -10 -40 -10 -100z m108 68 c7 -7 12 -24 12 -38 0 -31 -17 -50 -45 -50
-28 0 -45 19 -45 50 0 31 17 50 45 50 12 0 26 -5 33 -12z"/>
<path d="M2650 9585 c-16 -20 -5 -32 14 -16 20 17 60 10 64 -11 3 -13 -6 -17
-39 -20 -49 -3 -71 -27 -53 -55 13 -22 60 -29 80 -12 10 8 14 8 14 0 0 -6 5
-11 10 -11 14 0 12 114 -2 128 -17 17 -73 15 -88 -3z m80 -68 c0 -20 -22 -37
-47 -37 -16 0 -23 6 -23 19 0 11 6 22 13 24 24 10 57 7 57 -6z"/>
<path d="M2790 9530 c0 -81 17 -95 22 -19 2 36 8 55 21 63 30 19 52 -4 55 -63
2 -28 7 -51 13 -51 12 0 12 96 -1 121 -12 22 -59 26 -78 7 -9 -9 -12 -9 -12 0
0 7 -4 12 -10 12 -6 0 -10 -30 -10 -70z"/>
<path d="M2940 9595 c0 -3 13 -34 29 -69 25 -56 27 -66 15 -87 -16 -29 -17
-39 -4 -39 6 0 19 19 29 43 11 23 31 68 45 100 17 38 22 57 13 57 -6 0 -23
-24 -36 -53 l-23 -52 -24 53 c-13 28 -28 52 -34 52 -5 0 -10 -2 -10 -5z"/>
<path d="M16770 9552 c0 -59 21 -92 59 -92 15 0 32 5 39 12 9 9 12 9 12 0 0
-7 5 -12 10 -12 6 0 10 30 10 70 0 40 -4 70 -10 70 -5 0 -10 -15 -11 -32 -2
-64 -12 -83 -44 -83 -29 0 -30 1 -33 58 -2 42 -7 57 -17 57 -11 0 -15 -13 -15
-48z"/>
<path d="M16940 9530 c0 -40 4 -70 10 -70 6 0 10 19 10 43 0 54 18 80 51 75
22 -3 24 -8 27 -60 4 -76 22 -75 22 0 0 64 -11 82 -50 82 -14 0 -31 -5 -38
-12 -9 -9 -12 -9 -12 0 0 7 -4 12 -10 12 -6 0 -10 -30 -10 -70z"/>
<path d="M17115 9580 c-39 -43 -10 -120 45 -120 30 0 69 24 57 36 -4 4 -13 2
-19 -4 -15 -15 -51 -15 -66 0 -21 21 -13 27 41 30 49 3 52 4 49 28 -5 49 -73
68 -107 30z m83 -22 c3 -15 -4 -18 -37 -18 -43 0 -50 7 -29 28 18 18 62 11 66
-10z"/>
<path d="M17410 9476 c0 -8 -3 -21 -6 -30 -3 -9 -2 -16 4 -16 6 0 15 14 21 30
8 24 7 30 -5 30 -7 0 -14 -6 -14 -14z"/>
<path d="M14675 6884 c-12 -9 -30 -12 -46 -9 -36 8 -91 -16 -108 -48 -8 -15
-26 -29 -41 -32 -43 -9 -64 -40 -65 -93 -1 -41 -5 -49 -28 -60 -36 -17 -50
-46 -45 -91 3 -25 -1 -44 -15 -63 -29 -39 -26 -86 5 -112 14 -12 33 -36 42
-54 24 -47 59 -58 110 -32 22 11 44 16 48 12 8 -8 12 -157 6 -196 -2 -14 9
-26 37 -43 47 -26 97 -30 116 -7 12 14 14 13 23 -8 5 -12 10 -55 10 -94 1 -51
6 -77 17 -90 9 -11 24 -66 34 -127 l18 -108 39 2 c30 3 44 -2 65 -23 22 -23
25 -31 16 -50 -9 -21 -1 -34 74 -126 47 -57 87 -101 90 -98 3 2 -32 50 -77
105 -53 64 -79 104 -74 113 18 32 107 148 113 148 3 0 64 -45 134 -100 70 -55
127 -95 127 -91 0 5 -58 55 -128 110 -71 55 -151 118 -177 140 -27 22 -52 38
-56 35 -4 -2 -13 22 -19 53 -18 91 -25 107 -49 118 -24 11 -24 15 -5 125 8 47
-24 90 -67 90 -18 0 -29 5 -29 14 0 9 12 14 36 14 45 0 90 41 105 95 10 38 12
39 45 34 37 -6 74 18 74 48 0 8 12 26 26 40 22 22 26 33 21 65 -3 24 0 43 8
51 26 28 27 55 1 67 -14 6 -26 22 -29 39 -21 109 -34 131 -86 139 -28 5 -39
13 -51 37 -14 30 -19 32 -65 32 -40 0 -54 5 -68 23 -22 26 -81 30 -112 6z
m239 -249 c15 -9 18 -22 17 -75 -2 -82 -27 -241 -45 -285 -26 -61 -76 -70
-156 -30 -57 29 -67 27 -16 -3 38 -23 53 -60 28 -69 -9 -4 -21 -12 -27 -19 -8
-10 -25 -9 -81 3 l-72 16 -6 64 c-7 63 -6 64 29 97 37 35 41 49 25 91 -9 23
-6 29 25 56 28 25 35 38 35 68 l0 36 61 12 c62 12 103 39 115 75 5 18 7 18 28
-4 12 -13 30 -28 40 -33z m-274 -489 c61 -14 72 -31 46 -71 -19 -29 -42 -31
-91 -10 -40 16 -50 34 -41 70 7 28 11 29 86 11z m200 -160 c0 -10 -13 -16 -37
-19 -32 -3 -30 -4 13 -5 30 -1 56 -8 63 -16 6 -7 19 -50 27 -94 l17 -82 -27
-35 c-15 -19 -31 -35 -36 -35 -5 0 -18 12 -30 28 -18 21 -21 37 -18 73 5 47 5
47 -33 58 -26 8 -37 17 -37 29 1 9 -2 27 -6 40 -6 17 -3 22 9 22 12 0 14 4 6
19 -14 25 -5 31 46 31 31 0 43 -4 43 -14z m-38 -190 c-3 -34 1 -48 22 -73 34
-41 35 -83 2 -83 -21 0 -24 6 -36 78 -6 42 -14 89 -17 104 -4 22 -2 26 13 22
16 -4 18 -13 16 -48z m190 -49 l36 -33 -44 -59 c-25 -33 -49 -60 -53 -60 -4 0
-22 17 -40 37 l-33 37 44 56 c23 30 45 55 48 55 3 -1 21 -15 42 -33z"/>
<path d="M14728 6523 c12 -2 32 -2 45 0 12 2 2 4 -23 4 -25 0 -35 -2 -22 -4z"/>
<path d="M14868 6513 c6 -2 18 -2 25 0 6 3 1 5 -13 5 -14 0 -19 -2 -12 -5z"/>
<path d="M14750 6460 c0 -5 5 -10 10 -10 6 0 10 5 10 10 0 6 -4 10 -10 10 -5
0 -10 -4 -10 -10z"/>
<path d="M14870 6460 c0 -5 5 -10 10 -10 6 0 10 5 10 10 0 6 -4 10 -10 10 -5
0 -10 -4 -10 -10z"/>
<path d="M14846 6393 c5 -25 2 -32 -12 -36 -16 -4 -15 -5 4 -6 17 -1 22 4 22
22 0 12 -5 29 -10 37 -7 11 -8 6 -4 -17z"/>
<path d="M14770 6308 c0 -4 14 -8 30 -8 17 0 30 2 30 4 0 2 -13 6 -30 8 -16 3
-30 1 -30 -4z"/>
<path d="M14431 5653 c-14 -48 -14 -60 -2 -47 11 10 26 84 18 84 -4 0 -11 -17
-16 -37z"/>
<path d="M13578 5553 c-35 -6 -54 -28 -39 -47 9 -11 1 -14 -43 -20 -81 -9
-106 -21 -106 -51 0 -38 39 -57 123 -61 40 -1 56 0 37 2 -117 14 -125 16 -107
26 10 5 32 6 50 3 18 -4 28 -4 24 1 -5 5 -31 9 -58 9 -27 0 -49 5 -49 10 0 6
20 10 45 10 60 0 58 15 -2 16 -45 1 -46 1 -18 10 17 5 59 12 94 15 l64 7 -24
18 c-32 25 -16 35 67 44 62 6 123 -10 140 -37 4 -6 -15 -32 -41 -58 -39 -40
-58 -51 -99 -59 l-51 -10 51 4 c46 5 55 2 106 -34 l55 -40 61 68 61 69 -54 36
c-30 20 -62 36 -72 36 -9 0 -25 8 -35 17 -20 18 -120 27 -180 16z m281 -154
c-63 -75 -62 -75 -113 -39 l-45 33 52 57 51 57 47 -31 47 -31 -39 -46z"/>
<path d="M14100 5353 c0 -4 18 -18 40 -31 22 -12 40 -19 40 -14 0 5 -18 18
-40 31 -22 12 -40 19 -40 14z"/>
<path d="M14800 5010 c0 -5 20 -10 45 -10 25 0 45 5 45 10 0 6 -20 10 -45 10
-25 0 -45 -4 -45 -10z"/>
<path d="M15015 5010 c-4 -6 20 -10 65 -10 45 0 69 4 65 10 -3 6 -33 10 -65
10 -32 0 -62 -4 -65 -10z"/>
<path d="M14453 5003 c43 -2 110 -2 150 0 40 1 5 3 -78 3 -82 0 -115 -2 -72
-3z"/>
<path d="M14327 4843 c-100 -402 -94 -713 24 -1233 22 -96 47 -206 56 -245 8
-38 19 -137 23 -220 l7 -150 1 115 c2 137 -3 173 -73 490 -82 373 -98 502 -92
745 5 207 17 296 63 488 l26 107 408 0 407 0 21 -77 c31 -114 61 -270 83 -423
14 -100 17 -114 13 -55 -9 134 -70 450 -103 538 l-11 27 -413 0 -413 0 -27
-107z"/>
<path d="M8800 4311 c0 -26 17 -36 35 -21 18 15 8 40 -16 40 -12 0 -19 -7 -19
-19z"/>
<path d="M9734 4315 c-4 -10 -1 -21 7 -26 20 -12 34 -5 34 17 0 24 -33 31 -41
9z"/>
<path d="M8900 4280 c0 -11 -7 -20 -15 -20 -8 0 -15 -9 -15 -20 0 -11 7 -20
15 -20 11 0 15 -12 15 -48 0 -55 12 -72 52 -72 33 0 39 29 8 37 -16 4 -20 14
-20 44 0 32 3 39 20 39 13 0 20 7 20 20 0 13 -7 20 -20 20 -13 0 -20 7 -20 20
0 13 -7 20 -20 20 -13 0 -20 -7 -20 -20z"/>
<path d="M15303 4250 c0 -30 2 -43 4 -27 2 15 2 39 0 55 -2 15 -4 2 -4 -28z"/>
<path d="M8800 4180 c0 -73 2 -80 20 -80 18 0 20 7 20 80 0 73 -2 80 -20 80
-18 0 -20 -7 -20 -80z"/>
<path d="M9095 4244 c-28 -28 -15 -57 33 -72 23 -8 42 -20 42 -28 0 -16 -36
-19 -45 -4 -10 15 -45 12 -45 -5 0 -20 32 -35 72 -35 41 0 58 15 58 51 0 23
-6 29 -37 39 -49 16 -61 27 -39 36 10 4 22 2 29 -5 13 -13 47 -15 47 -3 0 5
-8 16 -18 25 -24 22 -76 22 -97 1z"/>
<path d="M9282 4253 c-22 -9 -44 -63 -37 -94 13 -58 94 -80 137 -37 27 27 10
36 -32 18 -34 -14 -60 -8 -60 15 0 12 12 15 53 15 30 0 56 3 60 6 10 10 -14
64 -33 74 -20 10 -66 12 -88 3z m62 -29 c28 -11 17 -24 -19 -24 -34 0 -47 13
-22 23 18 8 23 8 41 1z"/>
<path d="M9440 4180 c0 -73 2 -80 20 -80 17 0 20 7 20 48 0 51 12 72 42 72 11
0 18 7 18 20 0 22 -12 25 -40 10 -13 -7 -21 -7 -25 0 -3 5 -13 10 -21 10 -11
0 -14 -17 -14 -80z"/>
<path d="M9550 4253 c0 -5 12 -41 26 -80 24 -65 29 -73 53 -73 23 0 29 7 48
63 12 34 25 70 29 80 6 15 3 18 -16 15 -18 -2 -27 -14 -39 -50 -9 -26 -19 -49
-22 -52 -3 -3 -13 19 -23 49 -13 42 -22 55 -37 55 -10 0 -19 -3 -19 -7z"/>
<path d="M9737 4253 c-4 -3 -7 -39 -7 -80 0 -71 1 -73 25 -73 25 0 25 1 25 80
0 71 -2 80 -18 80 -10 0 -22 -3 -25 -7z"/>
<path d="M9835 4235 c-52 -51 -17 -135 56 -135 38 0 79 26 79 50 0 15 -31 12
-51 -6 -41 -37 -91 25 -54 66 22 24 38 25 55 5 14 -17 50 -20 50 -5 0 6 -9 19
-20 30 -29 29 -84 27 -115 -5z"/>
<path d="M10025 4235 c-31 -30 -32 -73 -4 -109 27 -35 88 -37 119 -3 19 20 19
22 4 25 -9 2 -28 -2 -41 -9 -25 -14 -53 -5 -61 19 -2 8 15 12 57 12 57 0 61 1
61 23 0 61 -89 88 -135 42z m85 -20 c11 -13 7 -15 -24 -15 -35 0 -49 13 -23
23 22 9 34 7 47 -8z"/>
<path d="M15314 3995 c0 -104 2 -146 3 -92 2 54 2 139 0 190 -1 51 -3 7 -3
-98z"/>
<path d="M15296 3723 c-12 -136 -53 -331 -151 -720 -91 -364 -130 -553 -115
-553 4 0 10 29 14 65 3 35 51 241 105 457 54 216 110 458 125 538 26 147 43
290 34 290 -3 0 -8 -35 -12 -77z"/>
<path d="M14421 2924 c0 -11 3 -14 6 -6 3 7 2 16 -1 19 -3 4 -6 -2 -5 -13z"/>
<path d="M14433 2800 c0 -47 2 -66 4 -42 2 23 2 61 0 85 -2 23 -4 4 -4 -43z"/>
<path d="M14442 2679 c-2 -44 26 -198 40 -219 8 -12 9 -12 4 2 -7 24 -34 175
-39 218 l-4 35 -1 -36z"/>
<path d="M14845 2454 c-7 -3 -8 -108 -4 -306 l7 -303 -33 -45 c-38 -51 -139
-150 -153 -150 -21 0 -21 36 -2 117 22 95 26 146 5 68 -8 -27 -35 -97 -60
-155 -54 -122 -68 -196 -40 -206 28 -11 100 33 157 95 28 31 55 55 60 54 4 -2
23 19 40 47 l33 50 68 0 c64 0 67 1 67 24 l0 24 77 -25 c43 -13 115 -27 160
-30 72 -5 83 -4 89 11 8 22 -3 30 -155 112 -144 77 -193 118 -216 179 -15 38
-15 54 -5 137 7 51 21 138 31 193 10 55 19 101 19 102 0 2 -5 3 -11 3 -5 0 -8
-4 -5 -8 2 -4 -2 -37 -9 -73 -32 -151 -47 -304 -35 -348 15 -56 77 -117 170
-165 39 -21 70 -40 68 -42 -9 -8 -293 48 -306 61 -3 3 -8 132 -10 286 -4 232
-2 283 9 290 14 9 3 11 -16 3z"/>
<path d="M14574 2442 c11 -18 99 -423 106 -487 7 -69 7 -69 9 -17 0 32 -18
138 -49 272 -27 121 -50 221 -50 224 0 3 39 7 88 9 l87 3 -98 2 c-54 1 -96 -2
-93 -6z"/>
</g>
</svg>
