<?xml version="1.0" standalone="no"?>
<!DOCTYPE svg PUBLIC "-//W3C//DTD SVG 20010904//EN"
 "http://www.w3.org/TR/2001/REC-SVG-20010904/DTD/svg10.dtd">
<svg version="1.0" xmlns="http://www.w3.org/2000/svg"
 width="1024.000000pt" height="1024.000000pt" viewBox="0 0 1024.000000 1024.000000"
 preserveAspectRatio="xMidYMid meet">
<metadata>
Created by potrace 1.16, written by Peter Selinger 2001-2019
</metadata>
<g transform="translate(0.000000,1024.000000) scale(0.100000,-0.100000)"
fill="#000000" stroke="none">
<path d="M6665 9681 c-55 -25 -91 -70 -104 -131 -6 -28 -11 -116 -11 -195 0
-167 11 -233 48 -277 51 -60 85 -68 302 -68 211 0 248 8 297 61 38 42 43 73
43 284 0 211 -5 242 -43 284 -49 53 -86 61 -297 61 -168 0 -201 -3 -235 -19z
m329 -174 c49 -27 86 -93 86 -152 0 -58 -37 -125 -86 -153 -32 -19 -50 -22
-101 -19 -67 3 -99 20 -137 70 -20 28 -33 117 -22 161 9 35 54 86 91 102 48
21 124 17 169 -9z"/>
<path d="M3673 9592 c-28 -22 -45 -66 -37 -98 8 -31 59 -74 89 -74 40 0 73 21
90 57 20 41 14 75 -20 109 -29 29 -89 32 -122 6z"/>
<path d="M8318 9421 c-28 -25 -33 -36 -33 -75 0 -82 79 -134 152 -100 58 28
81 103 46 154 -27 39 -45 49 -90 50 -33 0 -50 -6 -75 -29z"/>
<path d="M5622 8258 c-7 -7 -12 -35 -12 -62 l0 -51 -57 -22 -57 -22 -38 35
c-46 41 -66 43 -101 6 -36 -37 -34 -59 8 -102 l35 -35 -25 -60 -24 -60 -48 -3
c-61 -4 -73 -15 -73 -66 0 -55 13 -66 77 -66 44 0 53 -3 53 -18 0 -10 9 -35
20 -56 l19 -39 -34 -39 c-19 -21 -35 -44 -35 -51 0 -18 62 -77 81 -77 8 0 30
15 48 34 l33 34 59 -27 59 -26 0 -46 c0 -54 21 -79 68 -79 46 0 72 30 72 83
l0 42 61 23 61 24 32 -31 c40 -39 67 -39 100 0 34 40 33 56 -6 96 l-32 33 22
45 c12 25 22 52 22 60 0 11 12 15 44 15 55 0 76 19 76 69 0 47 -13 59 -68 63
-43 3 -44 3 -69 66 l-25 64 36 37 c20 20 36 41 36 47 0 15 -64 74 -80 74 -8 0
-30 -16 -50 -35 l-35 -35 -60 25 -60 24 -7 52 c-3 28 -12 56 -20 60 -20 13
-92 11 -106 -3z m159 -261 c116 -61 143 -214 56 -313 -75 -86 -199 -95 -284
-21 -113 99 -91 277 42 338 57 26 132 24 186 -4z"/>
<path d="M828 8218 c-180 -24 -329 -182 -345 -364 -31 -376 405 -590 686 -338
34 31 63 70 88 122 36 72 38 81 37 171 0 75 -5 109 -23 154 -70 179 -248 281
-443 255z m207 -92 c99 -45 177 -148 191 -249 l7 -47 -37 0 c-25 0 -36 -4 -36
-15 0 -11 11 -15 36 -15 l37 0 -5 -44 c-12 -101 -85 -198 -186 -248 -60 -30
-76 -33 -152 -33 -76 0 -92 3 -152 33 -101 50 -174 147 -186 248 l-5 44 37 0
c25 0 36 4 36 15 0 11 -11 15 -36 15 l-37 0 5 44 c14 123 117 236 247 273 66
19 170 9 236 -21z"/>
<path d="M2372 8201 c-87 -30 -152 -105 -172 -199 -15 -68 4 -142 69 -273 53
-105 173 -301 187 -306 11 -4 107 145 173 268 118 222 122 338 15 446 -79 79
-168 100 -272 64z m165 -121 c46 -28 67 -65 67 -119 0 -61 -28 -106 -79 -131
-52 -25 -78 -25 -131 1 -77 37 -104 135 -58 207 24 37 74 62 124 62 27 0 58
-8 77 -20z"/>
<path d="M6785 8151 c-98 -44 -119 -112 -113 -365 4 -192 10 -212 81 -270 l39
-31 206 -3 c129 -2 221 1 243 7 46 14 104 77 118 128 14 49 14 366 1 415 -14
50 -55 97 -105 119 -34 16 -67 19 -235 19 -168 0 -201 -3 -235 -19z m330 -174
c60 -34 87 -87 82 -164 -5 -104 -58 -155 -165 -161 -57 -3 -72 0 -101 20 -19
12 -43 35 -54 50 -25 33 -34 122 -18 170 31 95 162 138 256 85z"/>
<path d="M6948 7901 c-28 -25 -33 -36 -33 -75 0 -82 79 -134 152 -100 58 28
81 103 46 154 -27 39 -45 49 -90 50 -33 0 -50 -6 -75 -29z"/>
<path d="M8275 8141 c-98 -44 -119 -112 -113 -365 4 -192 10 -212 81 -270 l39
-31 206 -3 c129 -2 221 1 243 7 46 14 104 77 118 128 14 49 14 366 1 415 -14
50 -55 97 -105 119 -34 16 -67 19 -235 19 -168 0 -201 -3 -235 -19z m330 -174
c60 -34 87 -87 82 -164 -5 -104 -58 -155 -165 -161 -57 -3 -72 0 -101 20 -19
12 -43 35 -54 50 -25 33 -34 122 -18 170 31 95 162 138 256 85z"/>
<path d="M8438 7891 c-28 -25 -33 -36 -33 -75 0 -82 79 -134 152 -100 58 28
81 103 46 154 -27 39 -45 49 -90 50 -33 0 -50 -6 -75 -29z"/>
<path d="M3787 8055 c-45 -46 -44 -100 4 -144 57 -52 159 -5 159 74 0 82 -105
127 -163 70z"/>
<path d="M4020 7939 c-45 -14 -94 -51 -117 -89 -19 -33 -33 -39 -33 -15 0 8
-7 15 -15 15 -8 0 -15 -7 -15 -15 0 -8 -7 -15 -15 -15 -30 0 -67 -34 -86 -77
-10 -24 -25 -43 -33 -43 -8 0 -26 -14 -41 -32 -22 -26 -26 -39 -21 -67 3 -21
16 -45 31 -58 26 -23 28 -23 353 -23 373 0 373 0 413 84 49 99 -24 206 -140
206 -24 0 -41 5 -41 12 0 6 -12 26 -26 45 -46 61 -142 93 -214 72z"/>
</g>
</svg>
